<?xml version="1.0" encoding="UTF-8"?>
<!DOCTYPE svg PUBLIC "-//W3C//DTD SVG 1.1//EN" "http://www.w3.org/Graphics/SVG/1.1/DTD/svg11.dtd">
<!-- Creator: CorelDRAW X8 -->
<svg xmlns="http://www.w3.org/2000/svg" xml:space="preserve" width="494px" height="492px" version="1.1" style="shape-rendering:geometricPrecision; text-rendering:geometricPrecision; image-rendering:optimizeQuality; fill-rule:evenodd; clip-rule:evenodd"
viewBox="0 0 494000 492000"
 xmlns:xlink="http://www.w3.org/1999/xlink">
 <defs>
  <style type="text/css">
   <![CDATA[
    .str0 {stroke:black;stroke-width:1574.81}
    .fil2 {fill:none}
    .fil9 {fill:#88BD0B}
    .fil8 {fill:#C7A612}
    .fil10 {fill:#333333;fill-rule:nonzero}
    .fil6 {fill:url(#id9)}
    .fil4 {fill:url(#id10)}
    .fil1 {fill:url(#id11)}
    .fil3 {fill:url(#id12)}
    .fil0 {fill:url(#id13)}
    .fil5 {fill:url(#id14)}
    .fil7 {fill:url(#id15)}
   ]]>
  </style>
   <clipPath id="id0">
    <path d="M104359 235234c27557,-56829 52578,-100185 90591,-163875 31218,-52309 99445,-52309 123316,12146l56049 151341c13779,37204 28509,17957 38305,-5609 8093,-19465 12973,-29693 23355,-56984l31438 898c-10276,28336 -20227,55778 -30504,84114 -19931,44839 -63213,71001 -89682,-4671 -16194,-53250 -29839,-84355 -49513,-136390 -28851,-76320 -66306,-46601 -85942,-8878 -23126,44431 -51694,93890 -76608,146202l-30805 -18294z"/>
   </clipPath>
    <clipPath id="id1">
     <path d="M104359 235234c27557,-56829 52578,-100185 90591,-163875 31218,-52309 99445,-52309 123316,12146l56049 151341c13779,37204 28509,17957 38305,-5609 8093,-19465 12973,-29693 23355,-56984l31438 898c-10276,28336 -20227,55778 -30504,84114 -19931,44839 -63213,71001 -89682,-4671 -16194,-53250 -29839,-84355 -49513,-136390 -28851,-76320 -66306,-46601 -85942,-8878 -23126,44431 -51694,93890 -76608,146202l-30805 -18294z"/>
    </clipPath>
    <clipPath id="id2">
     <path d="M104359 235234c27557,-56829 52578,-100185 90591,-163875 31218,-52309 99445,-52309 123316,12146l56049 151341c13779,37204 28509,17957 38305,-5609 8093,-19465 12973,-29693 23355,-56984l31438 898c-10276,28336 -20227,55778 -30504,84114 -19931,44839 -63213,71001 -89682,-4671 -16194,-53250 -29839,-84355 -49513,-136390 -28851,-76320 -66306,-46601 -85942,-8878 -23126,44431 -51694,93890 -76608,146202l-30805 -18294z"/>
    </clipPath>
    <clipPath id="id3">
     <path d="M354803 182163l253 687 -19108 33844c-1521,-4077 -3383,-9045 -5475,-14608 -5074,-14086 -10205,-27445 -15694,-41595l-16936 -44774c-28848,-76317 -66306,-46601 -85942,-8878 -23126,44432 -51694,93891 -76608,146203l-30722 -18245c27474,-56615 52463,-99912 90379,-163438 31218,-52309 99445,-52309 123316,12146l36537 98658z"/>
    </clipPath>
    <clipPath id="id4">
     <path d="M104359 235234c27557,-56829 52578,-100185 90591,-163875 31218,-52309 99445,-52309 123316,12146l56049 151341c13779,37204 28509,17957 38305,-5609 8093,-19465 12973,-29693 23355,-56984l31438 898c-10276,28336 -20227,55778 -30504,84114 -19931,44839 -63213,71001 -89682,-4671 -16194,-53250 -29839,-84355 -49513,-136390 -28851,-76320 -66306,-46601 -85942,-8878 -23126,44431 -51694,93890 -76608,146202l-30805 -18294z"/>
    </clipPath>
   <clipPath id="id5">
    <path d="M97139 248665l12736 -24693 30777 18193 -10688 21219 -32825 -14719z"/>
   </clipPath>
   <clipPath id="id6">
    <path d="M433825 177868l4567 -12547 30645 2743 -3461 10148 -31751 -344z"/>
   </clipPath>
    <clipPath id="id7">
    </clipPath>
    <clipPath id="id8">
     <path d="M433825 177868l4567 -12547 30645 2743 -3461 10148 -31751 -344z"/>
    </clipPath>
  <linearGradient id="id9" gradientUnits="userSpaceOnUse" x1="260042" y1="219198" x2="329834" y2="219198">
   <stop offset="0" style="stop-opacity:1; stop-color:#F4840A"/>
   <stop offset="1" style="stop-opacity:1; stop-color:#EC9910"/>
  </linearGradient>
  <linearGradient id="id10" gradientUnits="userSpaceOnUse" x1="107457" y1="167467" x2="352087" y2="118592">
   <stop offset="0" style="stop-opacity:1; stop-color:#F08E0D"/>
   <stop offset="0.6" style="stop-opacity:1; stop-color:#E2B519"/>
   <stop offset="1" style="stop-opacity:1; stop-color:#D3DC25"/>
  </linearGradient>
  <linearGradient id="id11" gradientUnits="userSpaceOnUse" x1="111513" y1="208605" x2="460258" y2="125395">
   <stop offset="0" style="stop-opacity:1; stop-color:#EE930E"/>
   <stop offset="0.443137" style="stop-opacity:1; stop-color:#A19D19"/>
   <stop offset="0.741176" style="stop-opacity:1; stop-color:#CDED2B"/>
   <stop offset="1" style="stop-opacity:1; stop-color:#53A825"/>
  </linearGradient>
  <linearGradient id="id12" gradientUnits="userSpaceOnUse" xlink:href="#id11" x1="111513" y1="208605" x2="460258" y2="125395">
  </linearGradient>
  <linearGradient id="id13" gradientUnits="userSpaceOnUse" x1="21322.9" y1="232070" x2="472689" y2="110291">
   <stop offset="0" style="stop-opacity:1; stop-color:#FF6600"/>
   <stop offset="0.560784" style="stop-opacity:1; stop-color:#CDED2B"/>
   <stop offset="1" style="stop-opacity:1; stop-color:#53A825"/>
  </linearGradient>
  <linearGradient id="id14" gradientUnits="userSpaceOnUse" x1="99337.3" y1="234924" x2="138454" y2="252432">
   <stop offset="0" style="stop-opacity:1; stop-color:#F18D0C"/>
   <stop offset="1" style="stop-opacity:1; stop-color:#EC9810"/>
  </linearGradient>
  <linearGradient id="id15" gradientUnits="userSpaceOnUse" x1="438598" y1="185579" x2="464495" y2="163290">
   <stop offset="0" style="stop-opacity:1; stop-color:#7FC127"/>
   <stop offset="0.301961" style="stop-opacity:1; stop-color:#71B927"/>
   <stop offset="1" style="stop-opacity:1; stop-color:#63B126"/>
  </linearGradient>
 </defs>
 <g id="Слой_x0020_1">
  <path class="fil0" d="M435975 172253l15989 -45819c13163,-37717 -13501,-54131 -31873,-15841 -17295,36046 -42364,98439 -72867,152274 -22430,39582 -59563,28879 -82208,-16815 -33181,-66950 -45777,-116296 -70997,-183105 -13395,-35474 -40102,-38918 -62126,-463 -38381,67023 -57783,118065 -78474,180297 -16197,48714 9163,59504 29995,28610 7203,-10679 10810,-17130 20945,-36157l30805 18294c-12008,22556 -24523,48042 -40172,69128 -29266,39432 -106562,18352 -80335,-70059 30133,-101574 51041,-138713 93416,-213935 32390,-57505 87010,-44675 107432,4671 25738,62188 41314,114342 69131,175628 15196,33486 36881,28995 56984,-13078 19668,-41164 37650,-73178 58385,-113039 35252,-67775 101064,-25072 80955,37892l-13547 42415 -31438 -898z"/>
  <path class="fil1" d="M104359 235234c27557,-56829 52578,-100185 90591,-163875 31218,-52309 99445,-52309 123316,12146l56049 151341c13779,37204 28509,17957 38305,-5609 8093,-19465 12973,-29693 23355,-56984l31438 898c-10276,28336 -20227,55778 -30504,84114 -19931,44839 -63213,71001 -89682,-4671 -16194,-53250 -29839,-84355 -49513,-136390 -28851,-76320 -66306,-46601 -85942,-8878 -23126,44431 -51694,93890 -76608,146202l-30805 -18294z"/>
  <g style="clip-path:url(#id0)">
   <g id="_770780523904">
    <rect class="fil2 str0" x="224610" y="253496" width="43750" height="52084"/>
    <path class="fil3" d="M104359 235234c27557,-56829 52578,-100185 90591,-163875 31218,-52309 99445,-52309 123316,12146l56049 151341c13779,37204 28509,17957 38305,-5609 8093,-19465 12973,-29693 23355,-56984l31438 898c-10276,28336 -20227,55778 -30504,84114 -19931,44839 -63213,71001 -89682,-4671 -16194,-53250 -29839,-84355 -49513,-136390 -28851,-76320 -66306,-46601 -85942,-8878 -23126,44431 -51694,93890 -76608,146202l-30805 -18294z"/>
   </g>
   <g style="clip-path:url(#id1)">
    <g>
     <rect class="fil2 str0" x="224610" y="253496" width="43750" height="52084"/>
    </g>
   </g>
   <g style="clip-path:url(#id2)">
    <path class="fil2" d="M104359 235234c27557,-56829 52578,-100185 90591,-163875 31218,-52309 99445,-52309 123316,12146l56049 151341c13779,37204 28509,17957 38305,-5609 8093,-19465 12973,-29693 23355,-56984l31438 898c-10276,28336 -20227,55778 -30504,84114 -19931,44839 -63213,71001 -89682,-4671 -16194,-53250 -29839,-84355 -49513,-136390 -28851,-76320 -66306,-46601 -85942,-8878 -23126,44431 -51694,93890 -76608,146202l-30805 -18294z"/>
    <path class="fil4" d="M104488 234747c27557,-56829 52580,-100184 90591,-163874 31219,-52310 99620,-52375 123316,12145l36661 99832 -19108 33844c-8463,-22695 -27476,-72858 -38105,-100977 -28848,-76317 -66306,-46601 -85942,-8878 -23126,44432 -51694,93891 -76608,146203l-30805 -18295z"/>
   </g>
   <g style="clip-path:url(#id3)">
    <g>
     <rect class="fil2 str0" x="224739" y="253009" width="43750" height="52084"/>
    </g>
   </g>
   <g style="clip-path:url(#id4)">
    <path class="fil2" d="M104488 234747c27557,-56829 52580,-100184 90591,-163874 31219,-52310 99620,-52375 123316,12145l36661 99832 -19108 33844c-8463,-22695 -27476,-72858 -38105,-100977 -28848,-76317 -66306,-46601 -85942,-8878 -23126,44432 -51694,93891 -76608,146203l-30805 -18295z"/>
   </g>
  </g>
  <path class="fil2" d="M104359 235234c27557,-56829 52578,-100185 90591,-163875 31218,-52309 99445,-52309 123316,12146l56049 151341c13779,37204 28509,17957 38305,-5609 8093,-19465 12973,-29693 23355,-56984l31438 898c-10276,28336 -20227,55778 -30504,84114 -19931,44839 -63213,71001 -89682,-4671 -16194,-53250 -29839,-84355 -49513,-136390 -28851,-76320 -66306,-46601 -85942,-8878 -23126,44431 -51694,93890 -76608,146202l-30805 -18294z"/>
  <polygon class="fil5" points="97139,248665 109875,223972 140652,242165 129964,263384 "/>
  <g style="clip-path:url(#id5)">
   <g id="_770780517728">
    <ellipse class="fil6" cx="294938" cy="219198" rx="34896" ry="25260"/>
   </g>
  </g>
  <polygon class="fil2" points="97139,248665 109875,223972 140652,242165 129964,263384 "/>
  <g>
  </g>
  <g style="clip-path:url(#id6)">
   <g>
   </g>
   <g style="clip-path:url(#id7)">
    <image x="497357" y="164330" width="67432" height="30763" xlink:href="6532-logo-be2a01fc-a777-485a-b688-84a2b3687ac2_Images\6532-logo-be2a01fc-a777-485a-b688-84a2b3687ac2_ImgID1.png"/>
   </g>
   <g style="clip-path:url(#id8)">
   </g>
  </g>
  <polygon class="fil2" points="433825,177868 438392,165321 469037,168064 465576,178212 "/>
  <polygon class="fil7" points="432506,181263 440104,160423 470587,163208 461865,188446 "/>
  <path class="fil8" d="M196332 69125c4720,-8067 13956,-17739 20583,-22371 4740,11315 10168,25111 13527,34291 -6307,6889 -14705,18041 -19710,28272 -3881,-11047 -9972,-28213 -14400,-40192z"/>
  <path class="fil9" d="M354142 180379l15075 40706c-5980,13171 -12830,25524 -19699,37706 -3548,-9251 -9181,-27808 -13770,-41712 6618,-12677 11652,-23201 18394,-36700z"/>
  <g>
   <path class="fil10" d="M54952 490266l-6645 0 -37519 -55527 -5252 -9434 -107 0 322 8898 0 56063 -5146 0 0 -70750 6753 0 37411 55422 5361 9540 -215 -8898 0 -56064 5037 0 0 70750zm63246 -3538c1787,0 3180,-248 4180,-749l-322 4287c-1286,716 -3035,1072 -5252,1072 -2500,0 -4538,-678 -6110,-2036 -1571,-1358 -2465,-3717 -2679,-7074 -1645,2858 -4289,5091 -7932,6697 -3646,1609 -7469,2413 -11470,2413 -5288,0 -9523,-1179 -12703,-3536 -3181,-2360 -4770,-5718 -4770,-10077 0,-8290 6788,-13651 20367,-16080l16400 -2894 0 -4717c0,-4288 -1267,-7646 -3804,-10077 -2538,-2429 -6129,-3644 -10773,-3644 -8504,0 -14221,3788 -17151,11363l-4076 -3001c1573,-4217 4183,-7450 7827,-9703 3643,-2249 8110,-3376 13400,-3376 6216,0 11093,1520 14632,4557 3536,3036 5306,7450 5306,13238l0 27655c0,3789 1643,5682 4930,5682zm-29048 -105c2999,0 5929,-520 8788,-1556 2858,-1036 5235,-2573 7129,-4610 1895,-2036 2840,-4483 2840,-7342l0 -9969 -14685 2680c-5788,1071 -10004,2572 -12649,4502 -2645,1930 -3966,4396 -3966,7397 0,2858 1108,5056 3323,6592 2214,1537 5288,2306 9220,2306zm108372 -51134c5931,0 10773,1716 14526,5146 3751,3429 5627,8361 5627,14792l0 34732 -5359 0 0 -34195c0,-5145 -1394,-9058 -4181,-11737 -2787,-2680 -6538,-4021 -11256,-4021 -3430,0 -6556,821 -9379,2465 -2823,1644 -5075,3932 -6753,6860 -1680,2930 -2520,6218 -2520,9864l0 30871 -5359 0 0 -34195c0,-5144 -1393,-9058 -4180,-11737 -2787,-2680 -6540,-4021 -11258,-4021 -3285,0 -6359,785 -9217,2358 -2859,1572 -5164,3860 -6915,6860 -1751,3002 -2625,6469 -2625,10399l0 30336 -5361 0 0 -53598 4825 0 322 10720c1715,-3715 4323,-6609 7823,-8683 3504,-2071 7397,-3109 11685,-3109 4574,0 8576,1072 12007,3216 3429,2144 5824,5252 7182,9326 1430,-3930 4054,-7021 7879,-9273 3822,-2250 7986,-3376 12487,-3376zm83291 26693c0,1215 -71,2393 -214,3536l-42557 0c358,6576 2305,11702 5841,15384 3539,3679 8273,5521 14205,5521 4216,0 7843,-859 10881,-2575 3037,-1713 5234,-4144 6593,-7289l4502 2359c-2002,3930 -4861,6949 -8576,9058 -3717,2107 -8184,3162 -13400,3162 -7932,0 -14133,-2466 -18597,-7397 -4467,-4930 -6700,-11754 -6700,-20473 0,-8719 2161,-15543 6485,-20475 4323,-4930 10379,-7397 18168,-7397 7289,0 13006,2431 17151,7290 4147,4860 6218,11291 6218,19296zm-23369 -21869c-5787,0 -10361,1804 -13720,5414 -3359,3608 -5252,8664 -5682,15169l37734 0c-358,-6433 -2126,-11470 -5307,-15116 -3180,-3644 -7521,-5467 -13025,-5467z"/>
   <path class="fil10" d="M336585 418445c6630,0 12389,1484 17274,4450 4886,2965 8645,7182 11285,12648 2638,5467 3958,11917 3958,19349 0,7433 -1320,13883 -3958,19349 -2640,5467 -6399,9683 -11285,12649 -4885,2966 -10644,4448 -17274,4448 -6634,0 -12391,-1482 -17278,-4448 -4882,-2966 -8645,-7182 -11283,-12649 -2640,-5466 -3958,-11916 -3958,-19349 0,-7432 1318,-13882 3958,-19349 2638,-5466 6401,-9683 11283,-12648 4887,-2966 10644,-4450 17278,-4450zm0 4932c-5493,0 -10253,1267 -14282,3805 -4027,2537 -7131,6181 -9304,10934 -2177,4752 -3265,10344 -3265,16776 0,6431 1088,12024 3265,16776 2173,4752 5277,8397 9304,10934 4029,2537 8789,3806 14282,3806 5491,0 10266,-1269 14334,-3806 4064,-2537 7182,-6182 9357,-10934 2177,-4752 3264,-10345 3264,-16776 0,-6432 -1087,-12024 -3264,-16776 -2175,-4753 -5293,-8397 -9357,-10934 -4068,-2538 -8843,-3805 -14334,-3805zm73379 12219c6131,0 11070,1716 14814,5146 3744,3429 5613,8362 5613,14793l0 34731 -5346 0 0 -33016c0,-5717 -1392,-9969 -4173,-12756 -2781,-2787 -6594,-4181 -11445,-4181 -3422,0 -6595,785 -9519,2358 -2925,1572 -5259,3860 -7008,6860 -1747,3002 -2618,6504 -2618,10506l0 30229 -5351 0 0 -53598 4816 0 213 10827c1711,-3858 4330,-6807 7861,-8842 3529,-2038 7578,-3057 12143,-3057zm83432 26586c0,1215 -72,2393 -215,3536l-42465 0c357,6576 2300,11702 5830,15384 3530,3679 8253,5521 14174,5521 4207,0 7826,-859 10856,-2575 3032,-1713 5226,-4144 6579,-7289l4494 2359c-1999,3930 -4851,6949 -8558,9058 -3709,2107 -8167,3162 -13371,3162 -7915,0 -14103,-2466 -18558,-7397 -4457,-4930 -6687,-11754 -6687,-20473 0,-8719 2158,-15543 6472,-20475 4314,-4930 10358,-7397 18129,-7397 7274,0 12980,2431 17115,7290 4137,4860 6205,11291 6205,19296zm-23320 -21869c-5774,0 -10338,1804 -13690,5414 -3352,3608 -5241,8664 -5670,15169l37654 0c-357,-6433 -2122,-11470 -5295,-15116 -3175,-3644 -7507,-5467 -12999,-5467z"/>
  </g>
 </g>
</svg>
