<?xml version="1.0" encoding="UTF-8"?>
<!DOCTYPE svg PUBLIC "-//W3C//DTD SVG 1.1//EN" "http://www.w3.org/Graphics/SVG/1.1/DTD/svg11.dtd">
<!-- Creator: CorelDRAW X8 -->
<svg xmlns="http://www.w3.org/2000/svg" xml:space="preserve" width="494px" height="492px" version="1.1" style="shape-rendering:geometricPrecision; text-rendering:geometricPrecision; image-rendering:optimizeQuality; fill-rule:evenodd; clip-rule:evenodd"
  viewBox="0 0 494000 492000"
  xmlns:xlink="http://www.w3.org/1999/xlink">
  <defs>
    <style type="text/css">
      <![CDATA[
        .str0 {stroke:black;stroke-width:1574.81}
        .fil2 {fill:none}
        .fil9 {fill:#88BD0B}
        .fil8 {fill:#C7A612}
        .fil10 {fill:#333333;fill-rule:nonzero}
        .fil6 {fill:url(#id9)}
        .fil4 {fill:url(#id10)}
        .fil1 {fill:url(#id11)}
        .fil3 {fill:url(#id12)}
        .fil0 {fill:url(#id13)}
        .fil5 {fill:url(#id14)}
        .fil7 {fill:url(#id15)}
      ]]>
    </style>
    <clipPath id="id0">
      <path d="M104359 235234c27557,-56829 52578,-100185 90591,-163875 31218,-52309 99445,-52309 123316,12146l56049 151341c13779,37204 28509,17957 38305,-5609 8093,-19465 12973,-29693 23355,-56984l31438 898c-10276,28336 -20227,55778 -30504,84114 -19931,44839 -63213,71001 -89682,-4671 -16194,-53250 -29839,-84355 -49513,-136390 -28851,-76320 -66306,-46601 -85942,-8878 -23126,44431 -51694,93890 -76608,146202l-30805 -18294z"/>
    </clipPath>
    <clipPath id="id1">
      <path d="M104359 235234c27557,-56829 52578,-100185 90591,-163875 31218,-52309 99445,-52309 123316,12146l56049 151341c13779,37204 28509,17957 38305,-5609 8093,-19465 12973,-29693 23355,-56984l31438 898c-10276,28336 -20227,55778 -30504,84114 -19931,44839 -63213,71001 -89682,-4671 -16194,-53250 -29839,-84355 -49513,-136390 -28851,-76320 -66306,-46601 -85942,-8878 -23126,44431 -51694,93890 -76608,146202l-30805 -18294z"/>
    </clipPath>
    <clipPath id="id2">
      <path d="M104359 235234c27557,-56829 52578,-100185 90591,-163875 31218,-52309 99445,-52309 123316,12146l56049 151341c13779,37204 28509,17957 38305,-5609 8093,-19465 12973,-29693 23355,-56984l31438 898c-10276,28336 -20227,55778 -30504,84114 -19931,44839 -63213,71001 -89682,-4671 -16194,-53250 -29839,-84355 -49513,-136390 -28851,-76320 -66306,-46601 -85942,-8878 -23126,44431 -51694,93890 -76608,146202l-30805 -18294z"/>
    </clipPath>
    <clipPath id="id3">
      <path d="M354803 182163l253 687 -19108 33844c-1521,-4077 -3383,-9045 -5475,-14608 -5074,-14086 -10205,-27445 -15694,-41595l-16936 -44774c-28848,-76317 -66306,-46601 -85942,-8878 -23126,44432 -51694,93891 -76608,146203l-30722 -18245c27474,-56615 52463,-99912 90379,-163438 31218,-52309 99445,-52309 123316,12146l36537 98658z"/>
    </clipPath>
    <clipPath id="id4">
      <path d="M104359 235234c27557,-56829 52578,-100185 90591,-163875 31218,-52309 99445,-52309 123316,12146l56049 151341c13779,37204 28509,17957 38305,-5609 8093,-19465 12973,-29693 23355,-56984l31438 898c-10276,28336 -20227,55778 -30504,84114 -19931,44839 -63213,71001 -89682,-4671 -16194,-53250 -29839,-84355 -49513,-136390 -28851,-76320 -66306,-46601 -85942,-8878 -23126,44431 -51694,93890 -76608,146202l-30805 -18294z"/>
    </clipPath>
    <clipPath id="id5">
      <path d="M97139 248665l12736 -24693 30777 18193 -10688 21219 -32825 -14719z"/>
    </clipPath>
    <clipPath id="id6">
      <path d="M433825 177868l4567 -12547 30645 2743 -3461 10148 -31751 -344z"/>
    </clipPath>
    <clipPath id="id7">
    </clipPath>
    <clipPath id="id8">
      <path d="M433825 177868l4567 -12547 30645 2743 -3461 10148 -31751 -344z"/>
    </clipPath>
    <linearGradient id="id9" gradientUnits="userSpaceOnUse" x1="260042" y1="219198" x2="329834" y2="219198">
      <stop offset="0" style="stop-opacity:1; stop-color:#F4840A"/>
      <stop offset="1" style="stop-opacity:1; stop-color:#EC9910"/>
    </linearGradient>
    <linearGradient id="id10" gradientUnits="userSpaceOnUse" x1="107457" y1="167467" x2="352087" y2="118592">
      <stop offset="0" style="stop-opacity:1; stop-color:#F08E0D"/>
      <stop offset="0.6" style="stop-opacity:1; stop-color:#E2B519"/>
      <stop offset="1" style="stop-opacity:1; stop-color:#D3DC25"/>
    </linearGradient>
    <linearGradient id="id11" gradientUnits="userSpaceOnUse" x1="111513" y1="208605" x2="460258" y2="125395">
      <stop offset="0" style="stop-opacity:1; stop-color:#EE930E"/>
      <stop offset="0.443137" style="stop-opacity:1; stop-color:#A19D19"/>
      <stop offset="0.741176" style="stop-opacity:1; stop-color:#CDED2B"/>
      <stop offset="1" style="stop-opacity:1; stop-color:#53A825"/>
    </linearGradient>
    <linearGradient id="id12" gradientUnits="userSpaceOnUse" xlink:href="#id11" x1="111513" y1="208605" x2="460258" y2="125395">
    </linearGradient>
    <linearGradient id="id13" gradientUnits="userSpaceOnUse" x1="21322.9" y1="232070" x2="472689" y2="110291">
      <stop offset="0" style="stop-opacity:1; stop-color:#FF6600"/>
      <stop offset="0.560784" style="stop-opacity:1; stop-color:#CDED2B"/>
      <stop offset="1" style="stop-opacity:1; stop-color:#53A825"/>
    </linearGradient>
    <linearGradient id="id14" gradientUnits="userSpaceOnUse" x1="99337.3" y1="234924" x2="138454" y2="252432">
      <stop offset="0" style="stop-opacity:1; stop-color:#F18D0C"/>
      <stop offset="1" style="stop-opacity:1; stop-color:#EC9810"/>
    </linearGradient>
    <linearGradient id="id15" gradientUnits="userSpaceOnUse" x1="438598" y1="185579" x2="464495" y2="163290">
      <stop offset="0" style="stop-opacity:1; stop-color:#7FC127"/>
      <stop offset="0.301961" style="stop-opacity:1; stop-color:#71B927"/>
      <stop offset="1" style="stop-opacity:1; stop-color:#63B126"/>
    </linearGradient>
  </defs>

  <g id="Слой_x0020_1">
    <path class="fil0" d="M435975 172253l15989 -45819c13163,-37717 -13501,-54131 -31873,-15841 -17295,36046 -42364,98439 -72867,152274 -22430,39582 -59563,28879 -82208,-16815 -33181,-66950 -45777,-116296 -70997,-183105 -13395,-35474 -40102,-38918 -62126,-463 -38381,67023 -57783,118065 -78474,180297 -16197,48714 9163,59504 29995,28610 7203,-10679 10810,-17130 20945,-36157l30805 18294c-12008,22556 -24523,48042 -40172,69128 -29266,39432 -106562,18352 -80335,-70059 30133,-101574 51041,-138713 93416,-213935 32390,-57505 87010,-44675 107432,4671 25738,62188 41314,114342 69131,175628 15196,33486 36881,28995 56984,-13078 19668,-41164 37650,-73178 58385,-113039 35252,-67775 101064,-25072 80955,37892l-13547 42415 -31438 -898z"/>
    <path class="fil1" d="M104359 235234c27557,-56829 52578,-100185 90591,-163875 31218,-52309 99445,-52309 123316,12146l56049 151341c13779,37204 28509,17957 38305,-5609 8093,-19465 12973,-29693 23355,-56984l31438 898c-10276,28336 -20227,55778 -30504,84114 -19931,44839 -63213,71001 -89682,-4671 -16194,-53250 -29839,-84355 -49513,-136390 -28851,-76320 -66306,-46601 -85942,-8878 -23126,44431 -51694,93890 -76608,146202l-30805 -18294z"/>
    <g style="clip-path:url(#id0)">
      <g id="_770780523904">
        <rect class="fil2 str0" x="224610" y="253496" width="43750" height="52084"/>
        <path class="fil3" d="M104359 235234c27557,-56829 52578,-100185 90591,-163875 31218,-52309 99445,-52309 123316,12146l56049 151341c13779,37204 28509,17957 38305,-5609 8093,-19465 12973,-29693 23355,-56984l31438 898c-10276,28336 -20227,55778 -30504,84114 -19931,44839 -63213,71001 -89682,-4671 -16194,-53250 -29839,-84355 -49513,-136390 -28851,-76320 -66306,-46601 -85942,-8878 -23126,44431 -51694,93890 -76608,146202l-30805 -18294z"/>
      </g>
      <g style="clip-path:url(#id1)">
        <g>
        <rect class="fil2 str0" x="224610" y="253496" width="43750" height="52084"/>
        </g>
      </g>
      <g style="clip-path:url(#id2)">
        <path class="fil2" d="M104359 235234c27557,-56829 52578,-100185 90591,-163875 31218,-52309 99445,-52309 123316,12146l56049 151341c13779,37204 28509,17957 38305,-5609 8093,-19465 12973,-29693 23355,-56984l31438 898c-10276,28336 -20227,55778 -30504,84114 -19931,44839 -63213,71001 -89682,-4671 -16194,-53250 -29839,-84355 -49513,-136390 -28851,-76320 -66306,-46601 -85942,-8878 -23126,44431 -51694,93890 -76608,146202l-30805 -18294z"/>
        <path class="fil4" d="M104488 234747c27557,-56829 52580,-100184 90591,-163874 31219,-52310 99620,-52375 123316,12145l36661 99832 -19108 33844c-8463,-22695 -27476,-72858 -38105,-100977 -28848,-76317 -66306,-46601 -85942,-8878 -23126,44432 -51694,93891 -76608,146203l-30805 -18295z"/>
      </g>
      <g style="clip-path:url(#id3)">
        <g>
        <rect class="fil2 str0" x="224739" y="253009" width="43750" height="52084"/>
        </g>
      </g>
      <g style="clip-path:url(#id4)">
        <path class="fil2" d="M104488 234747c27557,-56829 52580,-100184 90591,-163874 31219,-52310 99620,-52375 123316,12145l36661 99832 -19108 33844c-8463,-22695 -27476,-72858 -38105,-100977 -28848,-76317 -66306,-46601 -85942,-8878 -23126,44432 -51694,93891 -76608,146203l-30805 -18295z"/>
      </g>
  </g>

    <polygon class="fil5" points="94632,248670 107368,223977 138145,242171 127457,263389 "/>
    <polygon class="fil2" points="429999,181268 437597,160429 468080,163214 459358,188452 "/>
    <path class="fil8" d="M193825 69130c4720,-8067 13956,-17738 20583,-22371 4740,11316 10168,25111 13527,34292 -6308,6889 -14705,18041 -19710,28271 -3881,-11047 -9972,-28212 -14400,-40192z"/>
    <path class="fil9" d="M351635 180385l15075 40705c-5980,13171 -12830,25524 -19699,37707 -3548,-9251 -9181,-27809 -13771,-41712 6619,-12677 11652,-23202 18395,-36700z"/>
 </g>
</svg>
