<?xml version="1.0" encoding="UTF-8"?>
<!DOCTYPE svg PUBLIC "-//W3C//DTD SVG 1.1//EN" "http://www.w3.org/Graphics/SVG/1.1/DTD/svg11.dtd">
<!-- Creator: CorelDRAW 2017 -->
<svg xmlns="http://www.w3.org/2000/svg" xml:space="preserve" width="81.2798mm" height="81.2798mm" version="1.1" style="shape-rendering:geometricPrecision; text-rendering:geometricPrecision; image-rendering:optimizeQuality; fill-rule:evenodd; clip-rule:evenodd"
viewBox="0 0 8127.98 8127.98"
 xmlns:xlink="http://www.w3.org/1999/xlink">
 <defs>
  <style type="text/css">
   <![CDATA[
    .fil91 {fill:#88BD0B}
    .fil90 {fill:#C7A612}
    .fil36 {fill:url(#id0)}
    .fil37 {fill:url(#id1)}
    .fil64 {fill:url(#id2)}
    .fil63 {fill:url(#id3)}
    .fil65 {fill:url(#id4)}
    .fil34 {fill:url(#id5)}
    .fil35 {fill:url(#id6)}
    .fil38 {fill:url(#id7)}
    .fil28 {fill:url(#id8)}
    .fil6 {fill:url(#id9)}
    .fil8 {fill:url(#id10)}
    .fil5 {fill:url(#id11)}
    .fil13 {fill:url(#id12)}
    .fil10 {fill:url(#id13)}
    .fil61 {fill:url(#id14)}
    .fil66 {fill:url(#id15)}
    .fil29 {fill:url(#id16)}
    .fil14 {fill:url(#id17)}
    .fil24 {fill:url(#id18)}
    .fil11 {fill:url(#id19)}
    .fil9 {fill:url(#id20)}
    .fil55 {fill:url(#id21)}
    .fil58 {fill:url(#id22)}
    .fil86 {fill:url(#id23)}
    .fil68 {fill:url(#id24)}
    .fil87 {fill:url(#id25)}
    .fil60 {fill:url(#id26)}
    .fil69 {fill:url(#id27)}
    .fil79 {fill:url(#id28)}
    .fil21 {fill:url(#id29)}
    .fil0 {fill:url(#id30)}
    .fil30 {fill:url(#id31)}
    .fil44 {fill:url(#id32)}
    .fil31 {fill:url(#id33)}
    .fil88 {fill:url(#id34)}
    .fil76 {fill:url(#id35)}
    .fil51 {fill:url(#id36)}
    .fil59 {fill:url(#id37)}
    .fil54 {fill:url(#id38)}
    .fil45 {fill:url(#id39)}
    .fil4 {fill:url(#id40)}
    .fil12 {fill:url(#id41)}
    .fil56 {fill:url(#id42)}
    .fil32 {fill:url(#id43)}
    .fil2 {fill:url(#id44)}
    .fil23 {fill:url(#id45)}
    .fil67 {fill:url(#id46)}
    .fil27 {fill:url(#id47)}
    .fil33 {fill:url(#id48)}
    .fil72 {fill:url(#id49)}
    .fil49 {fill:url(#id50)}
    .fil50 {fill:url(#id51)}
    .fil25 {fill:url(#id52)}
    .fil57 {fill:url(#id53)}
    .fil46 {fill:url(#id54)}
    .fil15 {fill:url(#id55)}
    .fil39 {fill:url(#id56)}
    .fil62 {fill:url(#id57)}
    .fil19 {fill:url(#id58)}
    .fil26 {fill:url(#id59)}
    .fil47 {fill:url(#id60)}
    .fil81 {fill:url(#id61)}
    .fil20 {fill:url(#id62)}
    .fil43 {fill:url(#id63)}
    .fil17 {fill:url(#id64)}
    .fil7 {fill:url(#id65)}
    .fil84 {fill:url(#id66)}
    .fil16 {fill:url(#id67)}
    .fil70 {fill:url(#id68)}
    .fil75 {fill:url(#id69)}
    .fil18 {fill:url(#id70)}
    .fil85 {fill:url(#id71)}
    .fil40 {fill:url(#id72)}
    .fil1 {fill:url(#id73)}
    .fil3 {fill:url(#id74)}
    .fil71 {fill:url(#id75)}
    .fil48 {fill:url(#id76)}
    .fil53 {fill:url(#id77)}
    .fil78 {fill:url(#id78)}
    .fil77 {fill:url(#id79)}
    .fil22 {fill:url(#id80)}
    .fil80 {fill:url(#id81)}
    .fil83 {fill:url(#id82)}
    .fil52 {fill:url(#id83)}
    .fil42 {fill:url(#id84)}
    .fil41 {fill:url(#id85)}
    .fil73 {fill:url(#id86)}
    .fil89 {fill:url(#id87)}
    .fil82 {fill:url(#id88)}
    .fil74 {fill:url(#id89)}
   ]]>
  </style>
  <linearGradient id="id0" gradientUnits="userSpaceOnUse" x1="5465.87" y1="4802.22" x2="5773.07" y2="4659.45">
   <stop offset="0" style="stop-opacity:1; stop-color:#83C327"/>
   <stop offset="1" style="stop-opacity:1; stop-color:#7DC027"/>
  </linearGradient>
  <linearGradient id="id1" gradientUnits="userSpaceOnUse" x1="5735.91" y1="4343.55" x2="5915.56" y2="4241.27">
   <stop offset="0" style="stop-opacity:1; stop-color:#7DC027"/>
   <stop offset="1" style="stop-opacity:1; stop-color:#78BD27"/>
  </linearGradient>
  <linearGradient id="id2" gradientUnits="userSpaceOnUse" x1="5606.2" y1="4588.09" x2="5465.07" y2="4523.5">
   <stop offset="0" style="stop-opacity:1; stop-color:#B8E12A"/>
   <stop offset="1" style="stop-opacity:1; stop-color:#BDE42A"/>
  </linearGradient>
  <linearGradient id="id3" gradientUnits="userSpaceOnUse" x1="5761.46" y1="5001.57" x2="5605.09" y2="4920.83">
   <stop offset="0" style="stop-opacity:1; stop-color:#B2DE2A"/>
   <stop offset="1" style="stop-opacity:1; stop-color:#B8E12A"/>
  </linearGradient>
  <linearGradient id="id4" gradientUnits="userSpaceOnUse" x1="5459.3" y1="4228.01" x2="5328.48" y2="4146.58">
   <stop offset="0" style="stop-opacity:1; stop-color:#BDE42A"/>
   <stop offset="1" style="stop-opacity:1; stop-color:#C2E72A"/>
  </linearGradient>
  <linearGradient id="id5" gradientUnits="userSpaceOnUse" x1="4907.04" y1="5457.15" x2="5168.79" y2="5409.13">
   <stop offset="0" style="stop-opacity:1; stop-color:#8DC928"/>
   <stop offset="1" style="stop-opacity:1; stop-color:#88C628"/>
  </linearGradient>
  <linearGradient id="id6" gradientUnits="userSpaceOnUse" x1="5200.07" y1="5252.69" x2="5474.16" y2="5150.73">
   <stop offset="0" style="stop-opacity:1; stop-color:#88C628"/>
   <stop offset="1" style="stop-opacity:1; stop-color:#83C327"/>
  </linearGradient>
  <linearGradient id="id7" gradientUnits="userSpaceOnUse" x1="5897.49" y1="4016.11" x2="6061.67" y2="3908.77">
   <stop offset="0" style="stop-opacity:1; stop-color:#78BD27"/>
   <stop offset="1" style="stop-opacity:1; stop-color:#73BA27"/>
  </linearGradient>
  <linearGradient id="id8" gradientUnits="userSpaceOnUse" x1="4051.96" y1="3966.27" x2="4119.43" y2="4150.16">
   <stop offset="0" style="stop-opacity:1; stop-color:#ADDB29"/>
   <stop offset="1" style="stop-opacity:1; stop-color:#A8D829"/>
  </linearGradient>
  <linearGradient id="id9" gradientUnits="userSpaceOnUse" x1="1244.79" y1="4436.06" x2="1317.2" y2="4250.41">
   <stop offset="0" style="stop-opacity:1; stop-color:#F18B0C"/>
   <stop offset="1" style="stop-opacity:1; stop-color:#EF910E"/>
  </linearGradient>
  <linearGradient id="id10" gradientUnits="userSpaceOnUse" x1="1404.84" y1="4009.09" x2="1478.18" y2="3830.42">
   <stop offset="0" style="stop-opacity:1; stop-color:#ED9710"/>
   <stop offset="1" style="stop-opacity:1; stop-color:#EB9D12"/>
  </linearGradient>
  <linearGradient id="id11" gradientUnits="userSpaceOnUse" x1="1134.32" y1="4698.17" x2="1214" y2="4481.95">
   <stop offset="0" style="stop-opacity:1; stop-color:#F4850A"/>
   <stop offset="1" style="stop-opacity:1; stop-color:#F18B0C"/>
  </linearGradient>
  <linearGradient id="id12" gradientUnits="userSpaceOnUse" x1="1921.68" y1="2866.82" x2="2040.76" y2="2637.99">
   <stop offset="0" style="stop-opacity:1; stop-color:#E1B619"/>
   <stop offset="1" style="stop-opacity:1; stop-color:#DFBC1B"/>
  </linearGradient>
  <linearGradient id="id13" gradientUnits="userSpaceOnUse" x1="1583.7" y1="3571.63" x2="1671.63" y2="3380.04">
   <stop offset="0" style="stop-opacity:1; stop-color:#E8A314"/>
   <stop offset="1" style="stop-opacity:1; stop-color:#E6AA16"/>
  </linearGradient>
  <linearGradient id="id14" gradientUnits="userSpaceOnUse" x1="6102.1" y1="5613.74" x2="5943.51" y2="5486.68">
   <stop offset="0" style="stop-opacity:1; stop-color:#A8D829"/>
   <stop offset="1" style="stop-opacity:1; stop-color:#ADDB29"/>
  </linearGradient>
  <linearGradient id="id15" gradientUnits="userSpaceOnUse" x1="5323.59" y1="3960.26" x2="5237.68" y2="3683.95">
   <stop offset="0" style="stop-opacity:1; stop-color:#C2E72A"/>
   <stop offset="1" style="stop-opacity:1; stop-color:#C8EA2B"/>
  </linearGradient>
  <linearGradient id="id16" gradientUnits="userSpaceOnUse" x1="4150.53" y1="4236.8" x2="4226.6" y2="4425.99">
   <stop offset="0" style="stop-opacity:1; stop-color:#A8D829"/>
   <stop offset="1" style="stop-opacity:1; stop-color:#A3D529"/>
  </linearGradient>
  <linearGradient id="id17" gradientUnits="userSpaceOnUse" x1="2056.64" y1="2655.65" x2="2182.5" y2="2402.62">
   <stop offset="0" style="stop-opacity:1; stop-color:#DFBC1B"/>
   <stop offset="1" style="stop-opacity:1; stop-color:#DDC21D"/>
  </linearGradient>
  <linearGradient id="id18" gradientUnits="userSpaceOnUse" x1="3685.54" y1="2964.16" x2="3770.73" y2="3214.33">
   <stop offset="0" style="stop-opacity:1; stop-color:#C2E72A"/>
   <stop offset="1" style="stop-opacity:1; stop-color:#BDE42A"/>
  </linearGradient>
  <linearGradient id="id19" gradientUnits="userSpaceOnUse" x1="1686.53" y1="3341.58" x2="1791.82" y2="3121.61">
   <stop offset="0" style="stop-opacity:1; stop-color:#E6AA16"/>
   <stop offset="1" style="stop-opacity:1; stop-color:#E4B017"/>
  </linearGradient>
  <linearGradient id="id20" gradientUnits="userSpaceOnUse" x1="1481.6" y1="3803.83" x2="1568.46" y2="3602.99">
   <stop offset="0" style="stop-opacity:1; stop-color:#EB9D12"/>
   <stop offset="1" style="stop-opacity:1; stop-color:#E8A314"/>
  </linearGradient>
  <linearGradient id="id21" gradientUnits="userSpaceOnUse" x1="6916.45" y1="4509.01" x2="6825.72" y2="4734.44">
   <stop offset="0" style="stop-opacity:1; stop-color:#88C628"/>
   <stop offset="1" style="stop-opacity:1; stop-color:#8DC928"/>
  </linearGradient>
  <linearGradient id="id22" gradientUnits="userSpaceOnUse" x1="6629.53" y1="5204.41" x2="6529.94" y2="5404.01">
   <stop offset="0" style="stop-opacity:1; stop-color:#98CF28"/>
   <stop offset="1" style="stop-opacity:1; stop-color:#9DD229"/>
  </linearGradient>
  <linearGradient id="id23" gradientUnits="userSpaceOnUse" x1="2231.8" y1="5179.37" x2="2125.28" y2="5366.82">
   <stop offset="0" style="stop-opacity:1; stop-color:#F67F08"/>
   <stop offset="1" style="stop-opacity:1; stop-color:#F87806"/>
  </linearGradient>
  <linearGradient id="id24" gradientUnits="userSpaceOnUse" x1="5124.95" y1="3378.13" x2="5064.07" y2="3223.44">
   <stop offset="0" style="stop-opacity:1; stop-color:#CDED2B"/>
   <stop offset="1" style="stop-opacity:1; stop-color:#CFE729"/>
  </linearGradient>
  <linearGradient id="id25" gradientUnits="userSpaceOnUse" x1="2105.26" y1="5400.95" x2="1965.24" y2="5627.27">
   <stop offset="0" style="stop-opacity:1; stop-color:#F87806"/>
   <stop offset="1" style="stop-opacity:1; stop-color:#FA7204"/>
  </linearGradient>
  <linearGradient id="id26" gradientUnits="userSpaceOnUse" x1="6314.89" y1="5601.93" x2="6188.78" y2="5626.09">
   <stop offset="0" style="stop-opacity:1; stop-color:#A3D529"/>
   <stop offset="1" style="stop-opacity:1; stop-color:#A8D829"/>
  </linearGradient>
  <linearGradient id="id27" gradientUnits="userSpaceOnUse" x1="5033.8" y1="3154.15" x2="4948.73" y2="2966.8">
   <stop offset="0" style="stop-opacity:1; stop-color:#CFE729"/>
   <stop offset="1" style="stop-opacity:1; stop-color:#D2E127"/>
  </linearGradient>
  <linearGradient id="id28" gradientUnits="userSpaceOnUse" x1="3330.8" y1="3113.96" x2="3182.01" y2="3390.98">
   <stop offset="0" style="stop-opacity:1; stop-color:#E6AA16"/>
   <stop offset="1" style="stop-opacity:1; stop-color:#E8A314"/>
  </linearGradient>
  <linearGradient id="id29" gradientUnits="userSpaceOnUse" x1="3404.5" y1="2232.04" x2="3469.88" y2="2381.33">
   <stop offset="0" style="stop-opacity:1; stop-color:#CFE729"/>
   <stop offset="1" style="stop-opacity:1; stop-color:#CDED2B"/>
  </linearGradient>
  <linearGradient id="id30" gradientUnits="userSpaceOnUse" x1="1380.6" y1="6142.42" x2="1129.24" y2="6094.79">
   <stop offset="0" style="stop-opacity:1; stop-color:#FF6600"/>
   <stop offset="1" style="stop-opacity:1; stop-color:#FD6C02"/>
  </linearGradient>
  <linearGradient id="id31" gradientUnits="userSpaceOnUse" x1="4236.31" y1="4442.09" x2="4335.06" y2="4676.09">
   <stop offset="0" style="stop-opacity:1; stop-color:#A3D529"/>
   <stop offset="1" style="stop-opacity:1; stop-color:#9DD229"/>
  </linearGradient>
  <linearGradient id="id32" gradientUnits="userSpaceOnUse" x1="6760.44" y1="2676.74" x2="6897.87" y2="2644.66">
   <stop offset="0" style="stop-opacity:1; stop-color:#58AB25"/>
   <stop offset="1" style="stop-opacity:1; stop-color:#53A825"/>
  </linearGradient>
  <linearGradient id="id33" gradientUnits="userSpaceOnUse" x1="4352.71" y1="4718.99" x2="4450.41" y2="4947.03">
   <stop offset="0" style="stop-opacity:1; stop-color:#9DD229"/>
   <stop offset="1" style="stop-opacity:1; stop-color:#98CF28"/>
  </linearGradient>
  <linearGradient id="id34" gradientUnits="userSpaceOnUse" x1="1927.07" y1="5685.09" x2="1797.32" y2="5864.27">
   <stop offset="0" style="stop-opacity:1; stop-color:#FA7204"/>
   <stop offset="1" style="stop-opacity:1; stop-color:#FD6C02"/>
  </linearGradient>
  <linearGradient id="id35" gradientUnits="userSpaceOnUse" x1="3810.63" y1="2459.58" x2="3649.05" y2="2601.21">
   <stop offset="0" style="stop-opacity:1; stop-color:#DFBC1B"/>
   <stop offset="1" style="stop-opacity:1; stop-color:#E1B619"/>
  </linearGradient>
  <linearGradient id="id36" gradientUnits="userSpaceOnUse" x1="7232.67" y1="3608.81" x2="7182.85" y2="3777.93">
   <stop offset="0" style="stop-opacity:1; stop-color:#73BA27"/>
   <stop offset="1" style="stop-opacity:1; stop-color:#78BD27"/>
  </linearGradient>
  <linearGradient id="id37" gradientUnits="userSpaceOnUse" x1="6511.32" y1="5431.43" x2="6353.5" y2="5590.68">
   <stop offset="0" style="stop-opacity:1; stop-color:#9DD229"/>
   <stop offset="1" style="stop-opacity:1; stop-color:#A3D529"/>
  </linearGradient>
  <linearGradient id="id38" gradientUnits="userSpaceOnUse" x1="6992.38" y1="4307.58" x2="6927.16" y2="4479.3">
   <stop offset="0" style="stop-opacity:1; stop-color:#83C327"/>
   <stop offset="1" style="stop-opacity:1; stop-color:#88C628"/>
  </linearGradient>
  <linearGradient id="id39" gradientUnits="userSpaceOnUse" x1="6926.23" y1="2641.99" x2="7060.22" y2="2680.82">
   <stop offset="0" style="stop-opacity:1; stop-color:#53A825"/>
   <stop offset="1" style="stop-opacity:1; stop-color:#58AB25"/>
  </linearGradient>
  <linearGradient id="id40" gradientUnits="userSpaceOnUse" x1="1024.59" y1="5001.21" x2="1104.3" y2="4748.77">
   <stop offset="0" style="stop-opacity:1; stop-color:#F67F08"/>
   <stop offset="1" style="stop-opacity:1; stop-color:#F4850A"/>
  </linearGradient>
  <linearGradient id="id41" gradientUnits="userSpaceOnUse" x1="1801.65" y1="3104" x2="1909.27" y2="2890.89">
   <stop offset="0" style="stop-opacity:1; stop-color:#E4B017"/>
   <stop offset="1" style="stop-opacity:1; stop-color:#E1B619"/>
  </linearGradient>
  <linearGradient id="id42" gradientUnits="userSpaceOnUse" x1="6810.57" y1="4760.76" x2="6737.18" y2="4942.6">
   <stop offset="0" style="stop-opacity:1; stop-color:#8DC928"/>
   <stop offset="1" style="stop-opacity:1; stop-color:#93CC28"/>
  </linearGradient>
  <linearGradient id="id43" gradientUnits="userSpaceOnUse" x1="4466.22" y1="4981.83" x2="4577.49" y2="5182.87">
   <stop offset="0" style="stop-opacity:1; stop-color:#98CF28"/>
   <stop offset="1" style="stop-opacity:1; stop-color:#93CC28"/>
  </linearGradient>
  <linearGradient id="id44" gradientUnits="userSpaceOnUse" x1="883.63" y1="5768.25" x2="928.48" y2="5374.47">
   <stop offset="0" style="stop-opacity:1; stop-color:#FA7204"/>
   <stop offset="1" style="stop-opacity:1; stop-color:#F87806"/>
  </linearGradient>
  <linearGradient id="id45" gradientUnits="userSpaceOnUse" x1="3579.39" y1="2654.18" x2="3680.36" y2="2919.97">
   <stop offset="0" style="stop-opacity:1; stop-color:#C8EA2B"/>
   <stop offset="1" style="stop-opacity:1; stop-color:#C2E72A"/>
  </linearGradient>
  <linearGradient id="id46" gradientUnits="userSpaceOnUse" x1="5223.29" y1="3652.58" x2="5152.57" y2="3451.92">
   <stop offset="0" style="stop-opacity:1; stop-color:#C8EA2B"/>
   <stop offset="1" style="stop-opacity:1; stop-color:#CDED2B"/>
  </linearGradient>
  <linearGradient id="id47" gradientUnits="userSpaceOnUse" x1="3959.51" y1="3734.73" x2="4023.51" y2="3912.7">
   <stop offset="0" style="stop-opacity:1; stop-color:#B2DE2A"/>
   <stop offset="1" style="stop-opacity:1; stop-color:#ADDB29"/>
  </linearGradient>
  <linearGradient id="id48" gradientUnits="userSpaceOnUse" x1="4585.73" y1="5191.95" x2="4758.6" y2="5375.64">
   <stop offset="0" style="stop-opacity:1; stop-color:#93CC28"/>
   <stop offset="1" style="stop-opacity:1; stop-color:#8DC928"/>
  </linearGradient>
  <linearGradient id="id49" gradientUnits="userSpaceOnUse" x1="4675.66" y1="2538.02" x2="4539.48" y2="2414.47">
   <stop offset="0" style="stop-opacity:1; stop-color:#D6D423"/>
   <stop offset="1" style="stop-opacity:1; stop-color:#D8CE21"/>
  </linearGradient>
  <linearGradient id="id50" gradientUnits="userSpaceOnUse" x1="7315.38" y1="3231.74" x2="7288.57" y2="3394.51">
   <stop offset="0" style="stop-opacity:1; stop-color:#68B426"/>
   <stop offset="1" style="stop-opacity:1; stop-color:#6EB726"/>
  </linearGradient>
  <linearGradient id="id51" gradientUnits="userSpaceOnUse" x1="7285.89" y1="3407.4" x2="7243.14" y2="3581.81">
   <stop offset="0" style="stop-opacity:1; stop-color:#6EB726"/>
   <stop offset="1" style="stop-opacity:1; stop-color:#73BA27"/>
  </linearGradient>
  <linearGradient id="id52" gradientUnits="userSpaceOnUse" x1="3777.01" y1="3231.8" x2="3867.31" y2="3482.09">
   <stop offset="0" style="stop-opacity:1; stop-color:#BDE42A"/>
   <stop offset="1" style="stop-opacity:1; stop-color:#B8E12A"/>
  </linearGradient>
  <linearGradient id="id53" gradientUnits="userSpaceOnUse" x1="6724.73" y1="4966.38" x2="6639.47" y2="5174.18">
   <stop offset="0" style="stop-opacity:1; stop-color:#93CC28"/>
   <stop offset="1" style="stop-opacity:1; stop-color:#98CF28"/>
  </linearGradient>
  <linearGradient id="id54" gradientUnits="userSpaceOnUse" x1="7109.94" y1="2705.65" x2="7220.88" y2="2808.45">
   <stop offset="0" style="stop-opacity:1; stop-color:#58AB25"/>
   <stop offset="1" style="stop-opacity:1; stop-color:#5EAE26"/>
  </linearGradient>
  <linearGradient id="id55" gradientUnits="userSpaceOnUse" x1="2201.13" y1="2398.33" x2="2344.62" y2="2178.28">
   <stop offset="0" style="stop-opacity:1; stop-color:#DDC21D"/>
   <stop offset="1" style="stop-opacity:1; stop-color:#DBC81F"/>
  </linearGradient>
  <linearGradient id="id56" gradientUnits="userSpaceOnUse" x1="6064.46" y1="3780.67" x2="6159.68" y2="3574.4">
   <stop offset="0" style="stop-opacity:1; stop-color:#73BA27"/>
   <stop offset="1" style="stop-opacity:1; stop-color:#6EB726"/>
  </linearGradient>
  <linearGradient id="id57" gradientUnits="userSpaceOnUse" x1="5925.52" y1="5466.92" x2="5782.5" y2="5282.01">
   <stop offset="0" style="stop-opacity:1; stop-color:#ADDB29"/>
   <stop offset="1" style="stop-opacity:1; stop-color:#B2DE2A"/>
  </linearGradient>
  <linearGradient id="id58" gradientUnits="userSpaceOnUse" x1="3044.97" y1="1892.69" x2="3251.12" y2="2029.6">
   <stop offset="0" style="stop-opacity:1; stop-color:#D4DB25"/>
   <stop offset="1" style="stop-opacity:1; stop-color:#D2E127"/>
  </linearGradient>
  <linearGradient id="id59" gradientUnits="userSpaceOnUse" x1="3874.34" y1="3501.36" x2="3953.81" y2="3719.1">
   <stop offset="0" style="stop-opacity:1; stop-color:#B8E12A"/>
   <stop offset="1" style="stop-opacity:1; stop-color:#B2DE2A"/>
  </linearGradient>
  <linearGradient id="id60" gradientUnits="userSpaceOnUse" x1="7248.22" y1="2850.6" x2="7303.55" y2="2985.66">
   <stop offset="0" style="stop-opacity:1; stop-color:#5EAE26"/>
   <stop offset="1" style="stop-opacity:1; stop-color:#63B126"/>
  </linearGradient>
  <linearGradient id="id61" gradientUnits="userSpaceOnUse" x1="3007.18" y1="3718.85" x2="2870.3" y2="3976.71">
   <stop offset="0" style="stop-opacity:1; stop-color:#EB9D12"/>
   <stop offset="1" style="stop-opacity:1; stop-color:#ED9710"/>
  </linearGradient>
  <linearGradient id="id62" gradientUnits="userSpaceOnUse" x1="3271.1" y1="2045.28" x2="3376.26" y2="2179.87">
   <stop offset="0" style="stop-opacity:1; stop-color:#D2E127"/>
   <stop offset="1" style="stop-opacity:1; stop-color:#CFE729"/>
  </linearGradient>
  <linearGradient id="id63" gradientUnits="userSpaceOnUse" x1="6596.94" y1="2849.7" x2="6725.19" y2="2715.54">
   <stop offset="0" style="stop-opacity:1; stop-color:#5EAE26"/>
   <stop offset="1" style="stop-opacity:1; stop-color:#58AB25"/>
  </linearGradient>
  <linearGradient id="id64" gradientUnits="userSpaceOnUse" x1="2526.67" y1="1987.22" x2="2757.82" y2="1877.37">
   <stop offset="0" style="stop-opacity:1; stop-color:#D8CE21"/>
   <stop offset="1" style="stop-opacity:1; stop-color:#D6D423"/>
  </linearGradient>
  <linearGradient id="id65" gradientUnits="userSpaceOnUse" x1="1316.87" y1="4196.21" x2="1387.56" y2="4035.3">
   <stop offset="0" style="stop-opacity:1; stop-color:#EF910E"/>
   <stop offset="1" style="stop-opacity:1; stop-color:#ED9710"/>
  </linearGradient>
  <linearGradient id="id66" gradientUnits="userSpaceOnUse" x1="2500.94" y1="4676.18" x2="2390.07" y2="4886.72">
   <stop offset="0" style="stop-opacity:1; stop-color:#F18B0C"/>
   <stop offset="1" style="stop-opacity:1; stop-color:#F4850A"/>
  </linearGradient>
  <linearGradient id="id67" gradientUnits="userSpaceOnUse" x1="2344.51" y1="2175.73" x2="2528.07" y2="1986.41">
   <stop offset="0" style="stop-opacity:1; stop-color:#DBC81F"/>
   <stop offset="1" style="stop-opacity:1; stop-color:#D8CE21"/>
  </linearGradient>
  <linearGradient id="id68" gradientUnits="userSpaceOnUse" x1="4924.35" y1="2919.21" x2="4851.3" y2="2785.51">
   <stop offset="0" style="stop-opacity:1; stop-color:#D2E127"/>
   <stop offset="1" style="stop-opacity:1; stop-color:#D4DB25"/>
  </linearGradient>
  <linearGradient id="id69" gradientUnits="userSpaceOnUse" x1="4046.03" y1="2330.7" x2="3840.24" y2="2433.96">
   <stop offset="0" style="stop-opacity:1; stop-color:#DDC21D"/>
   <stop offset="1" style="stop-opacity:1; stop-color:#DFBC1B"/>
  </linearGradient>
  <linearGradient id="id70" gradientUnits="userSpaceOnUse" x1="2747.47" y1="1863.36" x2="3041.06" y2="1902.7">
   <stop offset="0" style="stop-opacity:1; stop-color:#D6D423"/>
   <stop offset="1" style="stop-opacity:1; stop-color:#D4DB25"/>
  </linearGradient>
  <linearGradient id="id71" gradientUnits="userSpaceOnUse" x1="2355.67" y1="4951.4" x2="2269.6" y2="5110.76">
   <stop offset="0" style="stop-opacity:1; stop-color:#F4850A"/>
   <stop offset="1" style="stop-opacity:1; stop-color:#F67F08"/>
  </linearGradient>
  <linearGradient id="id72" gradientUnits="userSpaceOnUse" x1="6219.53" y1="3534.74" x2="6322.72" y2="3315.14">
   <stop offset="0" style="stop-opacity:1; stop-color:#6EB726"/>
   <stop offset="1" style="stop-opacity:1; stop-color:#68B426"/>
  </linearGradient>
  <linearGradient id="id73" gradientUnits="userSpaceOnUse" x1="1003.35" y1="6071.11" x2="892.61" y2="5797.96">
   <stop offset="0" style="stop-opacity:1; stop-color:#FD6C02"/>
   <stop offset="1" style="stop-opacity:1; stop-color:#FA7204"/>
  </linearGradient>
  <linearGradient id="id74" gradientUnits="userSpaceOnUse" x1="951.66" y1="5341.31" x2="1038.59" y2="5044.04">
   <stop offset="0" style="stop-opacity:1; stop-color:#F87806"/>
   <stop offset="1" style="stop-opacity:1; stop-color:#F67F08"/>
  </linearGradient>
  <linearGradient id="id75" gradientUnits="userSpaceOnUse" x1="4838.3" y1="2744.28" x2="4701.09" y2="2566.3">
   <stop offset="0" style="stop-opacity:1; stop-color:#D4DB25"/>
   <stop offset="1" style="stop-opacity:1; stop-color:#D6D423"/>
  </linearGradient>
  <linearGradient id="id76" gradientUnits="userSpaceOnUse" x1="7314.9" y1="3036.37" x2="7319.18" y2="3200.16">
   <stop offset="0" style="stop-opacity:1; stop-color:#63B126"/>
   <stop offset="1" style="stop-opacity:1; stop-color:#68B426"/>
  </linearGradient>
  <linearGradient id="id77" gradientUnits="userSpaceOnUse" x1="7079.85" y1="4078.65" x2="7002.64" y2="4296.02">
   <stop offset="0" style="stop-opacity:1; stop-color:#7DC027"/>
   <stop offset="1" style="stop-opacity:1; stop-color:#83C327"/>
  </linearGradient>
  <linearGradient id="id78" gradientUnits="userSpaceOnUse" x1="3480.62" y1="2841.55" x2="3369.36" y2="3047">
   <stop offset="0" style="stop-opacity:1; stop-color:#E4B017"/>
   <stop offset="1" style="stop-opacity:1; stop-color:#E6AA16"/>
  </linearGradient>
  <linearGradient id="id79" gradientUnits="userSpaceOnUse" x1="3632.2" y1="2620.92" x2="3508.48" y2="2791.97">
   <stop offset="0" style="stop-opacity:1; stop-color:#E1B619"/>
   <stop offset="1" style="stop-opacity:1; stop-color:#E4B017"/>
  </linearGradient>
  <linearGradient id="id80" gradientUnits="userSpaceOnUse" x1="3484.51" y1="2416.57" x2="3554.23" y2="2589.8">
   <stop offset="0" style="stop-opacity:1; stop-color:#CDED2B"/>
   <stop offset="1" style="stop-opacity:1; stop-color:#C8EA2B"/>
  </linearGradient>
  <linearGradient id="id81" gradientUnits="userSpaceOnUse" x1="3150.28" y1="3450.31" x2="3037.57" y2="3661.73">
   <stop offset="0" style="stop-opacity:1; stop-color:#E8A314"/>
   <stop offset="1" style="stop-opacity:1; stop-color:#EB9D12"/>
  </linearGradient>
  <linearGradient id="id82" gradientUnits="userSpaceOnUse" x1="2674.69" y1="4346.51" x2="2548.75" y2="4585.34">
   <stop offset="0" style="stop-opacity:1; stop-color:#EF910E"/>
   <stop offset="1" style="stop-opacity:1; stop-color:#F18B0C"/>
  </linearGradient>
  <linearGradient id="id83" gradientUnits="userSpaceOnUse" x1="7172.4" y1="3811.82" x2="7094.13" y2="4039.86">
   <stop offset="0" style="stop-opacity:1; stop-color:#78BD27"/>
   <stop offset="1" style="stop-opacity:1; stop-color:#7DC027"/>
  </linearGradient>
  <linearGradient id="id84" gradientUnits="userSpaceOnUse" x1="6468.2" y1="3047.89" x2="6566.1" y2="2893.1">
   <stop offset="0" style="stop-opacity:1; stop-color:#63B126"/>
   <stop offset="1" style="stop-opacity:1; stop-color:#5EAE26"/>
  </linearGradient>
  <linearGradient id="id85" gradientUnits="userSpaceOnUse" x1="6337.49" y1="3314.28" x2="6464.37" y2="3089.99">
   <stop offset="0" style="stop-opacity:1; stop-color:#68B426"/>
   <stop offset="1" style="stop-opacity:1; stop-color:#63B126"/>
  </linearGradient>
  <linearGradient id="id86" gradientUnits="userSpaceOnUse" x1="4520.02" y1="2403.92" x2="4323.81" y2="2327.89">
   <stop offset="0" style="stop-opacity:1; stop-color:#D8CE21"/>
   <stop offset="1" style="stop-opacity:1; stop-color:#DBC81F"/>
  </linearGradient>
  <linearGradient id="id87" gradientUnits="userSpaceOnUse" x1="1724.27" y1="5951.67" x2="1524.8" y2="6090.82">
   <stop offset="0" style="stop-opacity:1; stop-color:#FD6C02"/>
   <stop offset="1" style="stop-opacity:1; stop-color:#FF6600"/>
  </linearGradient>
  <linearGradient id="id88" gradientUnits="userSpaceOnUse" x1="2836.78" y1="4039.97" x2="2717.21" y2="4266">
   <stop offset="0" style="stop-opacity:1; stop-color:#ED9710"/>
   <stop offset="1" style="stop-opacity:1; stop-color:#EF910E"/>
  </linearGradient>
  <linearGradient id="id89" gradientUnits="userSpaceOnUse" x1="4289.83" y1="2317.87" x2="4092.7" y2="2327.07">
   <stop offset="0" style="stop-opacity:1; stop-color:#DBC81F"/>
   <stop offset="1" style="stop-opacity:1; stop-color:#DDC21D"/>
  </linearGradient>
 </defs>
 <g id="Слой_x0020_1">
  <metadata id="CorelCorpID_0Corel-Layer"/>
  <g id="_1810453529648">
   <path class="fil0" d="M1453.8 5766.44l82.64 700.82c-202.86,94.06 -537.82,21.46 -693.69,-158.06l441.42 -563c40.71,17.98 117.63,38.24 169.63,20.24z"/>
   <path class="fil1" d="M1301.5 5753.15l-424.98 590.79c-88.19,-71.17 -242.98,-310.28 -251.45,-518.81l597.28 -172.28c16.26,49.05 43.52,87.93 79.15,100.3z"/>
   <path class="fil2" d="M628.54 5857.6l603.44 -176.81c-18,-45 -35.21,-141.45 -33.21,-215.45l-474.21 -246.24c-68.32,186.52 -121.42,443.76 -96.02,638.5z"/>
   <path class="fil3" d="M714.92 5244.34l483.04 244.79c1,-72 18.72,-175.69 44.72,-273.69l-408.65 -348.39c-50.8,122.77 -90.83,278.01 -119.11,377.29z"/>
   <path class="fil4" d="M824.03 4891.97l413.82 341.61c30.85,-117.24 72.15,-239.66 110.98,-354.54l-404.72 -341.25c-36,106 -83.08,237.18 -120.08,354.18z"/>
   <path class="fil5" d="M1054.18 4232.99l381.22 406.13c-27,78 -72.19,199.01 -99.19,278.01l-398.49 -360.53c34,-98 83.46,-233.61 116.46,-323.61z"/>
   <path class="fil6" d="M1137.09 4008.86l384.75 389.73c-32,88 -64,176 -95,265l-389.15 -386.04c31,-84 69.4,-190.69 99.4,-268.69z"/>
   <path class="fil7" d="M1212.84 3816.59l387.96 375.08c-25,65 -61.76,162.39 -86.76,228.39l-386.37 -386.51c27.11,-69.13 57.17,-150.96 85.17,-216.96z"/>
   <path class="fil8" d="M1295.48 3631.86l401.31 319.51c-32,77 -75.43,187.49 -105.43,264.49l-387.4 -377.96c24,-56 67.52,-152.04 91.52,-206.04z"/>
   <path class="fil9" d="M1415.79 3368.09l360.4 394.48c-27,64 -66.19,156.86 -92.19,219.86l-402.17 -320c41,-92 91.96,-206.34 133.96,-294.34z"/>
   <path class="fil10" d="M1519.91 3158.1l366.13 357.76c-36,81 -88.36,197.36 -122.36,276.36l-359.55 -399.52c33,-69 80.78,-165.6 115.78,-234.6z"/>
   <path class="fil11" d="M1647.84 2914.6l350.05 358c-43,90 -84.86,184.67 -124.86,271.67l-364 -364.96c44,-86 91.81,-176.71 138.81,-264.71z"/>
   <path class="fil12" d="M1765.87 2697.02l338.47 368.86c-34,67 -86.83,166.54 -118.83,231.54l-347.1 -365.14c35,-66 89.46,-166.26 127.46,-235.26z"/>
   <path class="fil13" d="M1901.77 2451.01l338.91 356.38c-46,85 -103.15,193.77 -145.15,275.77l-345.73 -356.89c44,-80 103.97,-188.26 151.97,-275.26z"/>
   <path class="fil14" d="M2035.32 2214.51l331.61 365.44c-45,79 -103.35,184.27 -144.35,260.27l-331.89 -369.14c42,-75 99.63,-176.57 144.63,-256.57z"/>
   <path class="fil15" d="M2201.48 1966.44l309.35 386.17c-36,46 -71,99 -105,159 -15,27 -33.53,58.3 -48.53,85.3l-330.47 -367.3c12,-21 23,-42 35,-63 40,-71 90.28,-145.41 139.65,-200.17z"/>
   <path class="fil16" d="M2404.65 1763.77l273.66 422.79c-56.03,37.15 -126.47,112.71 -176.47,177.71l-315.85 -380.05c61.92,-87.95 147.49,-167.04 218.66,-220.45z"/>
   <path class="fil17" d="M2724.61 1626.45l99.1 489.87c-55.03,12.7 -113.2,46.86 -162.02,81.86l-272.19 -422.07c84.34,-71.7 224.57,-136.67 335.11,-149.66z"/>
   <path class="fil18" d="M3096.03 1672.51l-74.04 473.31c-63.94,-32.89 -153.07,-43.8 -225.31,-21.73l-93.57 -494.53c128,-23 272.92,-6.05 392.92,42.95z"/>
   <path class="fil19" d="M3321.11 1815.36l-130.41 484.35c-51,-68 -124.27,-131.78 -185.27,-161.68l73.81 -472.13c76,30 182.52,93.88 241.87,149.46z"/>
   <path class="fil20" d="M3517.66 2048.35l-248.08 388.42c-26,-53 -59.76,-112.16 -89.76,-152.16l123.92 -484.64c45.11,36.21 156.38,166.21 213.92,248.38z"/>
   <path class="fil21" d="M3628.82 2271.61l-289 345c-23.21,-63.84 -46.52,-130.93 -76,-192l240 -398c51.67,79.39 88.82,158.16 125,245z"/>
   <path class="fil22" d="M3716.81 2489.61l-294.22 352.32c-27,-74 -55.58,-154.3 -84.58,-230.3l289.33 -343.61c30,74 60.47,149.59 89.47,221.59z"/>
   <path class="fil23" d="M3821.81 2759.61l-297 371c-33,-94 -68.06,-193.06 -103.06,-291.06l294.36 -351.68c36,91 71.7,182.74 105.7,271.74z"/>
   <path class="fil24" d="M3925.15 3033.43l-296.28 396.73c-34,-97 -71.14,-204.47 -106.14,-305.47l297.53 -369.13c34,89 71.89,189.87 104.89,277.87z"/>
   <path class="fil25" d="M4024.72 3301.22l-300.76 400.27c-31,-86 -71.33,-202.42 -101.33,-289.42l296.19 -395.48c32,85 74.9,200.63 105.9,284.63z"/>
   <path class="fil26" d="M4102.64 3510.24l-286.26 448.97c-31,-84 -68.57,-188.62 -97.57,-272.62l297 -409c8.08,21.36 75.06,199.59 86.83,232.65z"/>
   <path class="fil27" d="M4185.81 3731.59l-297 422c-27,-72 -54,-144 -80,-215l290 -438.99c28,78 57,155 87,232l0 -0.01z"/>
   <path class="fil28" d="M4293.09 4012.64l-296.18 413.99c-35,-85 -86.63,-218.11 -118.63,-301.11l300.62 -411.7c32,87 80.19,211.82 114.19,298.82z"/>
   <path class="fil29" d="M4386.37 4245.34l-277.42 447.59c-38,-89 -85.14,-199.35 -120.14,-286.35l296 -415c8.41,21.46 101.56,251.52 101.56,253.76z"/>
   <path class="fil30" d="M4485.11 4482.14l-265.24 455.34c-39,-84 -86.06,-186.9 -121.06,-267.9l275 -454.99c33,81 76.3,184.55 111.3,267.55z"/>
   <path class="fil31" d="M4600.22 4744.77l-254.77 450.69c-46.48,-92.97 -92.42,-185.25 -135.65,-279.89l266 -454.99c38,88 83.42,192.19 124.42,284.19z"/>
   <path class="fil32" d="M4715.59 4949.95l-222.79 480.24c-50,-68 -112,-164.62 -156,-251.62l257 -447.99c6,13 12,27 18,40 29,64 71.79,135.37 103.79,179.37z"/>
   <path class="fil33" d="M4478.8 5411.57l224 -478.99c51.71,72.62 143.24,146.89 236.64,152.86l-93.82 629.48c-159.42,-64.22 -259.13,-157.64 -366.82,-303.35z"/>
   <path class="fil34" d="M4911.81 5084.7l-96.25 618.74c172.35,69.43 318.15,68.6 477.58,-42.75l-159.12 -647.75c-67.01,53.14 -136.4,77.25 -222.21,71.76z"/>
   <path class="fil35" d="M5379.75 4687.77c-60.25,105.69 -164.64,260.43 -261.68,337.34l153.24 651.44c139.13,-97.16 228.88,-237.2 310.48,-388.56 -73.19,-184.71 -137.85,-408.5 -202.04,-600.22z"/>
   <path class="fil36" d="M5644.14 4158.01l219.34 583.69c-87,190 -195.22,394.19 -295.22,570.18 -51,-133 -134.47,-398.31 -201.47,-599.3 96,-183 179.35,-359.58 277.35,-554.57z"/>
   <path class="fil37" d="M5632 4182.2c72.63,195.58 145.03,393.72 217.72,589.27 67.1,-136.59 132.5,-277.25 195.99,-415.55l-244.96 -502.22c-56.32,109.3 -112.43,219.2 -168.75,328.5z"/>
   <path class="fil38" d="M5784.48 3884.95l245.28 505.75c59.15,-128.77 126.92,-278.55 185.33,-407.64l-294.52 -356.87c-43.17,81.07 -93.73,177.27 -136.09,258.76z"/>
   <path class="fil39" d="M6053.1 3376.53l311.33 273.33c-50.26,110.82 -115.18,257.71 -165.27,368.41l-293.06 -364.88c44.32,-83.15 102.4,-193.87 147,-276.86z"/>
   <path class="fil40" d="M6175.64 3144.61l300.55 256.68c-35,78 -86.41,191.31 -125.41,279.31l-305 -290c40,-77 87.86,-166.99 129.86,-245.99z"/>
   <path class="fil41" d="M6321.9 2870.24l271.2 285.89c-47.32,94.63 -86.31,178.09 -130.33,274.47l-294 -273c49.98,-94.41 105.67,-192.44 153.13,-287.36z"/>
   <path class="fil42" d="M6442.8 2701.71l267.1 282.45c-42,46 -91.13,120.45 -130.13,197.45l-283.33 -261.55c32.46,-71.37 98.36,-161.35 146.36,-218.35z"/>
   <path class="fil43" d="M6666.45 2518.49l193.44 376.74c-45.33,10.03 -111.26,43.83 -159.59,99.79l-273.37 -274.05c68,-82 158.25,-161.81 239.52,-202.48z"/>
   <path class="fil44" d="M6933.95 2451.84l-2.53 442.42c-26.79,-7.47 -70.08,-1.62 -92.84,6.96l-190.81 -372.62c24.46,-14.29 167.64,-89.46 286.18,-76.76z"/>
   <path class="fil45" d="M6910.53 2450.44l-1.03 440.29c36.89,4.33 62.37,19.89 81.37,32.89l185.99 -399.9c-77.49,-47.56 -183.33,-72.28 -266.33,-73.28z"/>
   <path class="fil46" d="M7371.9 2712.48l-315.2 309.81c-16.6,-50.83 -47.94,-87.68 -76.94,-106.68l179 -402c78.07,40.92 163.43,122.54 213.14,198.87z"/>
   <path class="fil47" d="M7482.32 2980.19l-405.26 135.99c-5,-38 -16.52,-87.25 -28.52,-115.25l308.66 -309.7c53.66,74.67 106.23,178.63 125.12,288.96z"/>
   <path class="fil48" d="M7502.81 3233.45l-429.05 12.15c6,-52 5.68,-105.07 0.68,-147.07l403.32 -138.93c13.58,61.75 36.47,164.26 25.05,273.85z"/>
   <path class="fil49" d="M7466.4 3428.04l-428.33 -23.7c17,-55 31.43,-127.18 37.43,-175.18l430.27 -29.1c-4,64 -21.54,160.64 -39.37,227.98z"/>
   <path class="fil50" d="M6971.77 3597.6c24.83,-66.22 51.29,-146.52 72.98,-213.95l427.6 20.77c-17.11,71.29 -45.16,153.24 -67.58,223.18l-433 -30z"/>
   <path class="fil51" d="M7338.76 3828.59c-147,-7 -293.99,-14 -440.99,-21 25.61,-72.75 54.31,-153.21 79.92,-225.96 145.38,6.54 289.34,15.85 434.72,22.39 -27.96,85.09 -49.66,151.37 -73.65,224.57z"/>
   <path class="fil52" d="M7346.17 3806.02c-147.36,-5.46 -294.71,-10.93 -442.07,-16.39 -33.97,97.15 -67.95,194.31 -101.92,291.46 150.52,3.34 301.03,6.69 451.55,10.03 30.81,-95.03 61.63,-190.07 92.44,-285.1z"/>
   <path class="fil53" d="M6740.02 4251.89c144.33,25.67 285.88,60.58 430.21,86.25 33.13,-97.2 61.53,-187.55 92.53,-273.55 -149,-7 -297.99,-14 -446.99,-21 -29,75 -51.75,147.3 -75.75,208.3z"/>
   <path class="fil54" d="M6749.02 4228.4c143.75,26.99 286.48,56.14 430.23,83.13 -39.01,109.4 -59.45,169.33 -87.45,244.33 -137.67,-49.33 -277.36,-95.57 -415.03,-144.9 5.5,-13.9 71.89,-182.56 72.25,-182.56z"/>
   <path class="fil55" d="M6686.23 4387.8c137.34,49.9 274.69,99.81 412.03,149.71 -32,91 -69.49,195.08 -102.49,286.08 -142.33,-51.33 -282.03,-94.74 -424.36,-146.07 36,-86 74.82,-192.72 114.82,-289.72z"/>
   <path class="fil56" d="M6586.37 4641.05c141.43,53.09 274.12,112.47 415.55,165.56 -29,82 -64.15,180.97 -94.15,262.97 -134.46,-78.28 -270.23,-145.65 -404.69,-223.93 22,-53 57.94,-140.44 83.29,-204.6z"/>
   <path class="fil57" d="M6520.62 4801.28l392.87 252.64c-35.53,97.38 -71.47,191.78 -117.68,300.86l-370.26 -348.6c33.78,-67.1 71.21,-137.76 95.07,-204.9z"/>
   <path class="fil58" d="M6432.32 4992.76l380.25 322.02c-45.66,100.6 -108.8,212.8 -165.8,287.8l-311 -450.99c13.54,-18.19 79.62,-116.5 96.55,-158.83z"/>
   <path class="fil59" d="M6342.59 5142.24l315.92 444.64c-75.61,110.84 -176.74,202.69 -268.74,257.69l-127 -613.99c25,-20 56.82,-56.34 79.82,-88.34z"/>
   <path class="fil60" d="M6277.97 5217.25l140.31 609.25c-93.61,70.19 -229.51,102.07 -332.51,84.07l82.8 -641.77c36.96,2.3 79.73,-24.23 109.4,-51.55z"/>
   <path class="fil61" d="M6182.21 5268.42l-66.34 646.19c-104.47,-9.45 -239.09,-88.04 -338.09,-212.04l295.48 -471.31c31.51,29.82 78.28,38.81 108.95,37.16z"/>
   <path class="fil62" d="M6091.83 5248.99l-296.82 474.51c-79.62,-99.16 -144.73,-213.97 -194.11,-328.59l320.29 -432.79c37.1,94.02 94.22,220 170.64,286.87z"/>
   <path class="fil63" d="M5757.45 4519.78l-312.77 433.56c50.12,153.93 109.12,332.2 172.52,480.57l316.61 -440.57c-59.63,-151.34 -119.92,-320.75 -176.36,-473.56z"/>
   <path class="fil64" d="M5601.97 4100.92l-304.94 412.45c56.66,158.24 105.49,310.1 157.27,470.05l313.46 -435.68c-55.08,-149.02 -110.31,-297.95 -165.79,-446.82z"/>
   <path class="fil65" d="M5306.57 4540.11l303.34 -417.88c-33.17,-89.31 -82.26,-222.23 -115.29,-311.59 -107.7,121.31 -216.56,240.06 -324.26,361.37 39.41,103.08 98.94,264.23 136.21,368.1z"/>
   <path class="fil66" d="M5502.86 3832.84c-107.7,121.31 -212.98,248.67 -320.68,369.98 -38,-99 -93.62,-244.48 -133.62,-347.48l330.23 -356.75c40.51,109.12 83.56,225.13 124.07,334.25z"/>
   <path class="fil67" d="M5385.68 3517.17l-326.5 365.32c-31,-79 -67.39,-173.89 -100.39,-257.89 106.89,-126.67 213.77,-253.35 320.66,-380.02 35.41,90.86 70.82,181.73 106.23,272.59z"/>
   <path class="fil68" d="M5289.75 3274.95l-324.2 366.89c-29,-76 -65.75,-170.24 -96.75,-252.24l327.69 -383.43c34.4,91.9 64.62,181.01 93.26,268.78z"/>
   <path class="fil69" d="M5206.13 3032.8l-329.56 377.32c-36.68,-92.77 -68.85,-185.93 -108.77,-277.52l340 -366c28.11,83.17 69.17,179.91 98.33,266.2z"/>
   <path class="fil70" d="M5117.79 2793.45l-344.06 352.8c-30,-71 -70.31,-152.85 -102.31,-208.85l329.8 -390.56c41.31,66.33 86.57,166.61 116.57,246.61z"/>
   <path class="fil71" d="M5015.32 2570.19l-334.74 383.41c-44,-79 -96.78,-155.99 -142.78,-207.99l283.73 -430.52c66,65 140.79,165.1 193.79,255.1z"/>
   <path class="fil72" d="M4832.07 2326.85l-281.11 434c-30,-35 -74.16,-79.24 -105.16,-103.24l158.31 -498.53c41.49,18.23 188.1,118.11 227.96,167.77z"/>
   <path class="fil73" d="M4620.56 2167.47l-159.43 502.7c-49,-40.64 -130.58,-79.07 -178.58,-93.07l39.73 -508.24c89,15 215.28,54.61 298.28,98.61z"/>
   <path class="fil74" d="M4347.81 2072.61l-48 508.99c-59,-17 -117.07,-18.31 -177.05,-5.31l-110.95 -491.68c112,-26 225,-30 336,-12z"/>
   <path class="fil75" d="M4036.04 2079.33l115.66 491.78c-53.66,5.1 -142.89,47.49 -198.89,86.49l-259 -434.99c100,-67 226.33,-118.99 342.23,-143.28z"/>
   <path class="fil76" d="M3716.08 2208.21l269.39 428.48c-48.8,26.54 -144.96,105.16 -178.02,150.81l-362.87 -337.65c17.72,-27.31 178.7,-191.72 271.5,-241.64z"/>
   <path class="fil77" d="M3466.82 2423.61l358 345c-46,49 -93.4,106.62 -134.4,168.6l-410.6 -238.6c18,-30 36,-61 54,-91 40,-67 85,-129 133,-184z"/>
   <path class="fil78" d="M3291.3 2679.36l406.87 246.48c-60.28,87.55 -110.68,181.45 -159.49,274.63l-417.86 -230.86c53,-91 117.48,-200.25 170.48,-290.25z"/>
   <path class="fil79" d="M3132.47 2949.62l421.26 221.86c-56,108 -122.91,235.12 -178.91,342.12 -145.33,-75.67 -290.66,-151.33 -435.99,-227 20.69,-36.55 193.64,-336.98 193.64,-336.98z"/>
   <path class="fil80" d="M2946.85 3272.45c146.17,73.67 292.34,147.35 438.51,221.02 -48,93 -106.55,205.13 -155.55,297.13 -148.33,-77.33 -296.66,-154.67 -444.99,-232 51,-90 110.03,-195.15 162.03,-286.15z"/>
   <path class="fil81" d="M2796.4 3538.15c148.7,76.2 297.4,152.39 446.1,228.59 -55,106 -122.69,234.86 -177.69,339.86 -150.66,-79.33 -301.33,-158.67 -451.99,-238 55,-101 124.58,-225.45 183.58,-330.45z"/>
   <path class="fil82" d="M2623.46 3849.08l453.44 234.45c-50,96 -128.06,243.49 -178.06,339.49l-456.98 -242.15c50,-92 127.6,-232.79 181.6,-331.79z"/>
   <path class="fil83" d="M2455.83 4154.59l457.99 240c-58,110 -122.53,232.88 -180.53,341.88l-450.95 -247.27c54,-102 111.49,-218.61 173.49,-334.61z"/>
   <path class="fil84" d="M2290.31 4474.29l458.72 231.98c-51,98 -111.21,212.32 -163.21,309.32l-458.37 -229.51c45,-86 105.86,-204.79 162.86,-311.79z"/>
   <path class="fil85" d="M2141.04 4759.59l456.95 233.27c-44,85 -101.81,197.53 -146.81,281.53l-440.27 -262.47c31,-63 83.13,-160.33 130.13,-252.33z"/>
   <path class="fil86" d="M1900.84 5215.12l373.82 390.23c59,-110 128.98,-242.89 184.98,-347.89l-440.26 -262.47c-7.74,14.37 -118.18,220.13 -118.54,220.13z"/>
   <path class="fil87" d="M1913.94 5191.05l366.9 402.53c-42,80 -85,160 -130,240l-399.53 -365.93c50,-78 104.63,-171.6 162.63,-276.6z"/>
   <path class="fil88" d="M1765.38 5443.72l398.71 366.2c-63,111 -161.61,262.28 -242.41,365.02l-300.24 -536.48c16.38,-18.14 143.94,-183.2 143.94,-194.74z"/>
   <path class="fil89" d="M1638.38 5621.52l326.5 497.37c-102.14,141.87 -289.43,323.9 -471.66,365.27l-59.72 -712.72c61.31,-15.04 141.88,-79.92 204.88,-149.92z"/>
   <g>
    <path class="fil90" d="M3336.82 2603.61c68,-117 194,-264 290,-331 68,164 150,364 198,495.99 -91,100 -209,266 -281,421 -55,-159 -143,-413 -207,-585.99z"/>
    <path class="fil91" d="M5631.78 4181.59l218 586.99c-87,190 -184,371 -284,546.99 -51,-133 -131.99,-402 -198.99,-602.99 96,-183 166.99,-336 264.99,-530.99z"/>
   </g>
  </g>
 </g>
</svg>
