<?xml version="1.0" encoding="UTF-8"?>
<!DOCTYPE svg PUBLIC "-//W3C//DTD SVG 1.1//EN" "http://www.w3.org/Graphics/SVG/1.1/DTD/svg11.dtd">
<!-- Creator: CorelDRAW 2017 -->
<svg xmlns="http://www.w3.org/2000/svg" xml:space="preserve" width="81.2798mm" height="81.2798mm" version="1.1" style="shape-rendering:geometricPrecision; text-rendering:geometricPrecision; image-rendering:optimizeQuality; fill-rule:evenodd; clip-rule:evenodd"
viewBox="0 0 8127.98 8127.98"
 xmlns:xlink="http://www.w3.org/1999/xlink">
 <defs>
  <style type="text/css">
   <![CDATA[
    .fil95 {fill:#2B2A29}
    .fil67 {fill:url(#id0)}
    .fil68 {fill:url(#id1)}
    .fil28 {fill:url(#id2)}
    .fil4 {fill:url(#id3)}
    .fil6 {fill:url(#id4)}
    .fil56 {fill:url(#id5)}
    .fil8 {fill:url(#id6)}
    .fil3 {fill:url(#id7)}
    .fil5 {fill:url(#id8)}
    .fil13 {fill:url(#id9)}
    .fil64 {fill:url(#id10)}
    .fil71 {fill:url(#id11)}
    .fil29 {fill:url(#id12)}
    .fil14 {fill:url(#id13)}
    .fil24 {fill:url(#id14)}
    .fil11 {fill:url(#id15)}
    .fil9 {fill:url(#id16)}
    .fil58 {fill:url(#id17)}
    .fil61 {fill:url(#id18)}
    .fil41 {fill:url(#id19)}
    .fil91 {fill:url(#id20)}
    .fil38 {fill:url(#id21)}
    .fil73 {fill:url(#id22)}
    .fil66 {fill:url(#id23)}
    .fil70 {fill:url(#id24)}
    .fil92 {fill:url(#id25)}
    .fil74 {fill:url(#id26)}
    .fil16 {fill:url(#id27)}
    .fil94 {fill:url(#id28)}
    .fil18 {fill:url(#id29)}
    .fil42 {fill:url(#id30)}
    .fil19 {fill:url(#id31)}
    .fil65 {fill:url(#id32)}
    .fil84 {fill:url(#id33)}
    .fil21 {fill:url(#id34)}
    .fil30 {fill:url(#id35)}
    .fil47 {fill:url(#id36)}
    .fil31 {fill:url(#id37)}
    .fil53 {fill:url(#id38)}
    .fil93 {fill:url(#id39)}
    .fil54 {fill:url(#id40)}
    .fil62 {fill:url(#id41)}
    .fil63 {fill:url(#id42)}
    .fil48 {fill:url(#id43)}
    .fil52 {fill:url(#id44)}
    .fil46 {fill:url(#id45)}
    .fil12 {fill:url(#id46)}
    .fil32 {fill:url(#id47)}
    .fil2 {fill:url(#id48)}
    .fil23 {fill:url(#id49)}
    .fil72 {fill:url(#id50)}
    .fil27 {fill:url(#id51)}
    .fil83 {fill:url(#id52)}
    .fil77 {fill:url(#id53)}
    .fil35 {fill:url(#id54)}
    .fil25 {fill:url(#id55)}
    .fil60 {fill:url(#id56)}
    .fil15 {fill:url(#id57)}
    .fil7 {fill:url(#id58)}
    .fil26 {fill:url(#id59)}
    .fil1 {fill:url(#id60)}
    .fil86 {fill:url(#id61)}
    .fil20 {fill:url(#id62)}
    .fil17 {fill:url(#id63)}
    .fil50 {fill:url(#id64)}
    .fil89 {fill:url(#id65)}
    .fil33 {fill:url(#id66)}
    .fil34 {fill:url(#id67)}
    .fil80 {fill:url(#id68)}
    .fil75 {fill:url(#id69)}
    .fil90 {fill:url(#id70)}
    .fil43 {fill:url(#id71)}
    .fil49 {fill:url(#id72)}
    .fil10 {fill:url(#id73)}
    .fil76 {fill:url(#id74)}
    .fil0 {fill:url(#id75)}
    .fil81 {fill:url(#id76)}
    .fil51 {fill:url(#id77)}
    .fil39 {fill:url(#id78)}
    .fil82 {fill:url(#id79)}
    .fil22 {fill:url(#id80)}
    .fil36 {fill:url(#id81)}
    .fil85 {fill:url(#id82)}
    .fil88 {fill:url(#id83)}
    .fil59 {fill:url(#id84)}
    .fil55 {fill:url(#id85)}
    .fil69 {fill:url(#id86)}
    .fil45 {fill:url(#id87)}
    .fil57 {fill:url(#id88)}
    .fil44 {fill:url(#id89)}
    .fil37 {fill:url(#id90)}
    .fil78 {fill:url(#id91)}
    .fil87 {fill:url(#id92)}
    .fil40 {fill:url(#id93)}
    .fil79 {fill:url(#id94)}
   ]]>
  </style>
  <linearGradient id="id0" gradientUnits="userSpaceOnUse" x1="5684.62" y1="5015.17" x2="5631.29" y2="4829.72">
   <stop offset="0" style="stop-opacity:1; stop-color:#CFE829"/>
   <stop offset="1" style="stop-opacity:1; stop-color:#D1E328"/>
  </linearGradient>
  <linearGradient id="id1" gradientUnits="userSpaceOnUse" x1="5611.09" y1="4797.62" x2="5543.35" y2="4601.72">
   <stop offset="0" style="stop-opacity:1; stop-color:#D1E328"/>
   <stop offset="1" style="stop-opacity:1; stop-color:#D2DF26"/>
  </linearGradient>
  <linearGradient id="id2" gradientUnits="userSpaceOnUse" x1="4051.96" y1="3966.65" x2="4119.43" y2="4150.54">
   <stop offset="0" style="stop-opacity:1; stop-color:#CDED2B"/>
   <stop offset="1" style="stop-opacity:1; stop-color:#C7E92B"/>
  </linearGradient>
  <linearGradient id="id3" gradientUnits="userSpaceOnUse" x1="1026.01" y1="5001.59" x2="1105.37" y2="4749.15">
   <stop offset="0" style="stop-opacity:1; stop-color:#F87906"/>
   <stop offset="1" style="stop-opacity:1; stop-color:#F67E08"/>
  </linearGradient>
  <linearGradient id="id4" gradientUnits="userSpaceOnUse" x1="1244.79" y1="4436.44" x2="1317.2" y2="4250.79">
   <stop offset="0" style="stop-opacity:1; stop-color:#F48309"/>
   <stop offset="1" style="stop-opacity:1; stop-color:#F3880B"/>
  </linearGradient>
  <linearGradient id="id5" gradientUnits="userSpaceOnUse" x1="7080.81" y1="4077.18" x2="7004.01" y2="4283.07">
   <stop offset="0" style="stop-opacity:1; stop-color:#8DC928"/>
   <stop offset="1" style="stop-opacity:1; stop-color:#93CC28"/>
  </linearGradient>
  <linearGradient id="id6" gradientUnits="userSpaceOnUse" x1="1404.84" y1="4009.47" x2="1478.18" y2="3830.8">
   <stop offset="0" style="stop-opacity:1; stop-color:#F18D0C"/>
   <stop offset="1" style="stop-opacity:1; stop-color:#EF910E"/>
  </linearGradient>
  <linearGradient id="id7" gradientUnits="userSpaceOnUse" x1="950.72" y1="5342.92" x2="1037.31" y2="5048.12">
   <stop offset="0" style="stop-opacity:1; stop-color:#FA7405"/>
   <stop offset="1" style="stop-opacity:1; stop-color:#F87906"/>
  </linearGradient>
  <linearGradient id="id8" gradientUnits="userSpaceOnUse" x1="1134.32" y1="4698.55" x2="1214" y2="4482.33">
   <stop offset="0" style="stop-opacity:1; stop-color:#F67E08"/>
   <stop offset="1" style="stop-opacity:1; stop-color:#F48309"/>
  </linearGradient>
  <linearGradient id="id9" gradientUnits="userSpaceOnUse" x1="1921.68" y1="2867.2" x2="2040.76" y2="2638.37">
   <stop offset="0" style="stop-opacity:1; stop-color:#E8A514"/>
   <stop offset="1" style="stop-opacity:1; stop-color:#E6AA16"/>
  </linearGradient>
  <linearGradient id="id10" gradientUnits="userSpaceOnUse" x1="6102.1" y1="5614.12" x2="5943.51" y2="5487.06">
   <stop offset="0" style="stop-opacity:1; stop-color:#C0E62A"/>
   <stop offset="1" style="stop-opacity:1; stop-color:#C7E92B"/>
  </linearGradient>
  <linearGradient id="id11" gradientUnits="userSpaceOnUse" x1="5324.11" y1="3952.16" x2="5239.67" y2="3680.92">
   <stop offset="0" style="stop-opacity:1; stop-color:#D6D523"/>
   <stop offset="1" style="stop-opacity:1; stop-color:#D8D022"/>
  </linearGradient>
  <linearGradient id="id12" gradientUnits="userSpaceOnUse" x1="4150.53" y1="4237.18" x2="4226.6" y2="4426.37">
   <stop offset="0" style="stop-opacity:1; stop-color:#C7E92B"/>
   <stop offset="1" style="stop-opacity:1; stop-color:#C0E62A"/>
  </linearGradient>
  <linearGradient id="id13" gradientUnits="userSpaceOnUse" x1="2056.64" y1="2656.03" x2="2182.5" y2="2403">
   <stop offset="0" style="stop-opacity:1; stop-color:#E6AA16"/>
   <stop offset="1" style="stop-opacity:1; stop-color:#E4AE17"/>
  </linearGradient>
  <linearGradient id="id14" gradientUnits="userSpaceOnUse" x1="3685.54" y1="2964.54" x2="3770.73" y2="3214.71">
   <stop offset="0" style="stop-opacity:1; stop-color:#D4DA25"/>
   <stop offset="1" style="stop-opacity:1; stop-color:#D2DF26"/>
  </linearGradient>
  <linearGradient id="id15" gradientUnits="userSpaceOnUse" x1="1686.53" y1="3341.96" x2="1791.82" y2="3121.99">
   <stop offset="0" style="stop-opacity:1; stop-color:#EB9B11"/>
   <stop offset="1" style="stop-opacity:1; stop-color:#EAA012"/>
  </linearGradient>
  <linearGradient id="id16" gradientUnits="userSpaceOnUse" x1="1481.6" y1="3804.21" x2="1568.46" y2="3603.37">
   <stop offset="0" style="stop-opacity:1; stop-color:#EF910E"/>
   <stop offset="1" style="stop-opacity:1; stop-color:#ED960F"/>
  </linearGradient>
  <linearGradient id="id17" gradientUnits="userSpaceOnUse" x1="6916.45" y1="4509.39" x2="6825.72" y2="4734.82">
   <stop offset="0" style="stop-opacity:1; stop-color:#9AD028"/>
   <stop offset="1" style="stop-opacity:1; stop-color:#A0D429"/>
  </linearGradient>
  <linearGradient id="id18" gradientUnits="userSpaceOnUse" x1="6629.53" y1="5204.79" x2="6529.94" y2="5404.39">
   <stop offset="0" style="stop-opacity:1; stop-color:#ADDB29"/>
   <stop offset="1" style="stop-opacity:1; stop-color:#B3DE2A"/>
  </linearGradient>
  <linearGradient id="id19" gradientUnits="userSpaceOnUse" x1="5974.37" y1="4019.62" x2="6071.88" y2="3808.45">
   <stop offset="0" style="stop-opacity:1; stop-color:#7ABE27"/>
   <stop offset="1" style="stop-opacity:1; stop-color:#73BA27"/>
  </linearGradient>
  <linearGradient id="id20" gradientUnits="userSpaceOnUse" x1="2231.8" y1="5179.75" x2="2125.28" y2="5367.2">
   <stop offset="0" style="stop-opacity:1; stop-color:#FA7405"/>
   <stop offset="1" style="stop-opacity:1; stop-color:#FB7003"/>
  </linearGradient>
  <linearGradient id="id21" gradientUnits="userSpaceOnUse" x1="5618.83" y1="4775.32" x2="5725.49" y2="4545.24">
   <stop offset="0" style="stop-opacity:1; stop-color:#8DC928"/>
   <stop offset="1" style="stop-opacity:1; stop-color:#86C528"/>
  </linearGradient>
  <linearGradient id="id22" gradientUnits="userSpaceOnUse" x1="5124.95" y1="3378.51" x2="5064.07" y2="3223.82">
   <stop offset="0" style="stop-opacity:1; stop-color:#DACB20"/>
   <stop offset="1" style="stop-opacity:1; stop-color:#DBC61F"/>
  </linearGradient>
  <linearGradient id="id23" gradientUnits="userSpaceOnUse" x1="5774.7" y1="5249.5" x2="5705.72" y2="5060.92">
   <stop offset="0" style="stop-opacity:1; stop-color:#CDED2B"/>
   <stop offset="1" style="stop-opacity:1; stop-color:#CFE829"/>
  </linearGradient>
  <linearGradient id="id24" gradientUnits="userSpaceOnUse" x1="5428.49" y1="4262.22" x2="5341.83" y2="4004.83">
   <stop offset="0" style="stop-opacity:1; stop-color:#D4DA25"/>
   <stop offset="1" style="stop-opacity:1; stop-color:#D6D523"/>
  </linearGradient>
  <linearGradient id="id25" gradientUnits="userSpaceOnUse" x1="2105.26" y1="5401.33" x2="1965.24" y2="5627.65">
   <stop offset="0" style="stop-opacity:1; stop-color:#FB7003"/>
   <stop offset="1" style="stop-opacity:1; stop-color:#FD6B02"/>
  </linearGradient>
  <linearGradient id="id26" gradientUnits="userSpaceOnUse" x1="5033.8" y1="3154.53" x2="4948.73" y2="2967.18">
   <stop offset="0" style="stop-opacity:1; stop-color:#DBC61F"/>
   <stop offset="1" style="stop-opacity:1; stop-color:#DDC21D"/>
  </linearGradient>
  <linearGradient id="id27" gradientUnits="userSpaceOnUse" x1="2343.66" y1="2176.11" x2="2526.24" y2="1986.79">
   <stop offset="0" style="stop-opacity:1; stop-color:#E2B319"/>
   <stop offset="1" style="stop-opacity:1; stop-color:#E1B81A"/>
  </linearGradient>
  <linearGradient id="id28" gradientUnits="userSpaceOnUse" x1="1724.27" y1="5952.05" x2="1521.89" y2="6137.85">
   <stop offset="0" style="stop-opacity:1; stop-color:#FF6600"/>
   <stop offset="1" style="stop-opacity:1; stop-color:#FF6600"/>
  </linearGradient>
  <linearGradient id="id29" gradientUnits="userSpaceOnUse" x1="2755.2" y1="1863.34" x2="3042.28" y2="1902.73">
   <stop offset="0" style="stop-opacity:1; stop-color:#DFBD1C"/>
   <stop offset="1" style="stop-opacity:1; stop-color:#DDC21D"/>
  </linearGradient>
  <linearGradient id="id30" gradientUnits="userSpaceOnUse" x1="6088.33" y1="3803.34" x2="6210.37" y2="3564.5">
   <stop offset="0" style="stop-opacity:1; stop-color:#73BA27"/>
   <stop offset="1" style="stop-opacity:1; stop-color:#6DB726"/>
  </linearGradient>
  <linearGradient id="id31" gradientUnits="userSpaceOnUse" x1="3044.08" y1="1891.93" x2="3245.56" y2="2028.15">
   <stop offset="0" style="stop-opacity:1; stop-color:#DDC21D"/>
   <stop offset="1" style="stop-opacity:1; stop-color:#DBC61F"/>
  </linearGradient>
  <linearGradient id="id32" gradientUnits="userSpaceOnUse" x1="5914.03" y1="5457.98" x2="5788.29" y2="5247.41">
   <stop offset="0" style="stop-opacity:1; stop-color:#C7E92B"/>
   <stop offset="1" style="stop-opacity:1; stop-color:#CDED2B"/>
  </linearGradient>
  <linearGradient id="id33" gradientUnits="userSpaceOnUse" x1="3330.8" y1="3114.34" x2="3182.01" y2="3391.36">
   <stop offset="0" style="stop-opacity:1; stop-color:#ED960F"/>
   <stop offset="1" style="stop-opacity:1; stop-color:#EF910E"/>
  </linearGradient>
  <linearGradient id="id34" gradientUnits="userSpaceOnUse" x1="3404.5" y1="2232.42" x2="3469.88" y2="2381.71">
   <stop offset="0" style="stop-opacity:1; stop-color:#DACB20"/>
   <stop offset="1" style="stop-opacity:1; stop-color:#D8D022"/>
  </linearGradient>
  <linearGradient id="id35" gradientUnits="userSpaceOnUse" x1="4236.31" y1="4442.47" x2="4335.06" y2="4676.47">
   <stop offset="0" style="stop-opacity:1; stop-color:#C0E62A"/>
   <stop offset="1" style="stop-opacity:1; stop-color:#BAE22A"/>
  </linearGradient>
  <linearGradient id="id36" gradientUnits="userSpaceOnUse" x1="6760.44" y1="2676.31" x2="6897.87" y2="2644.34">
   <stop offset="0" style="stop-opacity:1; stop-color:#53A825"/>
   <stop offset="1" style="stop-opacity:1; stop-color:#59AC25"/>
  </linearGradient>
  <linearGradient id="id37" gradientUnits="userSpaceOnUse" x1="4352.71" y1="4719.37" x2="4450.41" y2="4947.41">
   <stop offset="0" style="stop-opacity:1; stop-color:#BAE22A"/>
   <stop offset="1" style="stop-opacity:1; stop-color:#B3DE2A"/>
  </linearGradient>
  <linearGradient id="id38" gradientUnits="userSpaceOnUse" x1="7284.38" y1="3414.13" x2="7241.84" y2="3583.51">
   <stop offset="0" style="stop-opacity:1; stop-color:#7ABE27"/>
   <stop offset="1" style="stop-opacity:1; stop-color:#80C127"/>
  </linearGradient>
  <linearGradient id="id39" gradientUnits="userSpaceOnUse" x1="1927.07" y1="5685.47" x2="1797.32" y2="5864.65">
   <stop offset="0" style="stop-opacity:1; stop-color:#FD6B02"/>
   <stop offset="1" style="stop-opacity:1; stop-color:#FF6600"/>
  </linearGradient>
  <linearGradient id="id40" gradientUnits="userSpaceOnUse" x1="7232.67" y1="3616.06" x2="7182.85" y2="3779.89">
   <stop offset="0" style="stop-opacity:1; stop-color:#80C127"/>
   <stop offset="1" style="stop-opacity:1; stop-color:#86C528"/>
  </linearGradient>
  <linearGradient id="id41" gradientUnits="userSpaceOnUse" x1="6511.32" y1="5431.81" x2="6353.5" y2="5591.06">
   <stop offset="0" style="stop-opacity:1; stop-color:#B3DE2A"/>
   <stop offset="1" style="stop-opacity:1; stop-color:#BAE22A"/>
  </linearGradient>
  <linearGradient id="id42" gradientUnits="userSpaceOnUse" x1="6314.89" y1="5602.31" x2="6130.34" y2="5624.87">
   <stop offset="0" style="stop-opacity:1; stop-color:#BAE22A"/>
   <stop offset="1" style="stop-opacity:1; stop-color:#C0E62A"/>
  </linearGradient>
  <linearGradient id="id43" gradientUnits="userSpaceOnUse" x1="6933.05" y1="2643.07" x2="7063.39" y2="2681.8">
   <stop offset="0" style="stop-opacity:1; stop-color:#59AC25"/>
   <stop offset="1" style="stop-opacity:1; stop-color:#60AF26"/>
  </linearGradient>
  <linearGradient id="id44" gradientUnits="userSpaceOnUse" x1="7316.07" y1="3231.5" x2="7289.35" y2="3391.1">
   <stop offset="0" style="stop-opacity:1; stop-color:#73BA27"/>
   <stop offset="1" style="stop-opacity:1; stop-color:#7ABE27"/>
  </linearGradient>
  <linearGradient id="id45" gradientUnits="userSpaceOnUse" x1="6600.49" y1="2850.67" x2="6727.01" y2="2717.05">
   <stop offset="0" style="stop-opacity:1; stop-color:#59AC25"/>
   <stop offset="1" style="stop-opacity:1; stop-color:#53A825"/>
  </linearGradient>
  <linearGradient id="id46" gradientUnits="userSpaceOnUse" x1="1801.65" y1="3104.38" x2="1909.27" y2="2891.27">
   <stop offset="0" style="stop-opacity:1; stop-color:#EAA012"/>
   <stop offset="1" style="stop-opacity:1; stop-color:#E8A514"/>
  </linearGradient>
  <linearGradient id="id47" gradientUnits="userSpaceOnUse" x1="4466.22" y1="4982.21" x2="4577.49" y2="5183.25">
   <stop offset="0" style="stop-opacity:1; stop-color:#B3DE2A"/>
   <stop offset="1" style="stop-opacity:1; stop-color:#ADDB29"/>
  </linearGradient>
  <linearGradient id="id48" gradientUnits="userSpaceOnUse" x1="883.63" y1="5768.63" x2="928.48" y2="5374.85">
   <stop offset="0" style="stop-opacity:1; stop-color:#FD6D02"/>
   <stop offset="1" style="stop-opacity:1; stop-color:#FA7405"/>
  </linearGradient>
  <linearGradient id="id49" gradientUnits="userSpaceOnUse" x1="3579.39" y1="2654.56" x2="3680.36" y2="2920.35">
   <stop offset="0" style="stop-opacity:1; stop-color:#D6D523"/>
   <stop offset="1" style="stop-opacity:1; stop-color:#D4DA25"/>
  </linearGradient>
  <linearGradient id="id50" gradientUnits="userSpaceOnUse" x1="5223.29" y1="3652.96" x2="5152.57" y2="3452.3">
   <stop offset="0" style="stop-opacity:1; stop-color:#D8D022"/>
   <stop offset="1" style="stop-opacity:1; stop-color:#DACB20"/>
  </linearGradient>
  <linearGradient id="id51" gradientUnits="userSpaceOnUse" x1="3959.51" y1="3735.11" x2="4023.51" y2="3913.08">
   <stop offset="0" style="stop-opacity:1; stop-color:#CFE829"/>
   <stop offset="1" style="stop-opacity:1; stop-color:#CDED2B"/>
  </linearGradient>
  <linearGradient id="id52" gradientUnits="userSpaceOnUse" x1="3477.29" y1="2841.93" x2="3367.06" y2="3047.38">
   <stop offset="0" style="stop-opacity:1; stop-color:#EB9B11"/>
   <stop offset="1" style="stop-opacity:1; stop-color:#ED960F"/>
  </linearGradient>
  <linearGradient id="id53" gradientUnits="userSpaceOnUse" x1="4675.66" y1="2538.97" x2="4539.48" y2="2415.74">
   <stop offset="0" style="stop-opacity:1; stop-color:#E1B81A"/>
   <stop offset="1" style="stop-opacity:1; stop-color:#E2B319"/>
  </linearGradient>
  <linearGradient id="id54" gradientUnits="userSpaceOnUse" x1="5045.93" y1="5415.34" x2="5267.82" y2="5285.98">
   <stop offset="0" style="stop-opacity:1; stop-color:#A0D429"/>
   <stop offset="1" style="stop-opacity:1; stop-color:#9AD028"/>
  </linearGradient>
  <linearGradient id="id55" gradientUnits="userSpaceOnUse" x1="3777.01" y1="3232.18" x2="3867.31" y2="3482.47">
   <stop offset="0" style="stop-opacity:1; stop-color:#D2DF26"/>
   <stop offset="1" style="stop-opacity:1; stop-color:#D1E328"/>
  </linearGradient>
  <linearGradient id="id56" gradientUnits="userSpaceOnUse" x1="6724.73" y1="4966.76" x2="6639.47" y2="5174.56">
   <stop offset="0" style="stop-opacity:1; stop-color:#A6D729"/>
   <stop offset="1" style="stop-opacity:1; stop-color:#ADDB29"/>
  </linearGradient>
  <linearGradient id="id57" gradientUnits="userSpaceOnUse" x1="2201.13" y1="2398.71" x2="2344.62" y2="2178.66">
   <stop offset="0" style="stop-opacity:1; stop-color:#E4AE17"/>
   <stop offset="1" style="stop-opacity:1; stop-color:#E2B319"/>
  </linearGradient>
  <linearGradient id="id58" gradientUnits="userSpaceOnUse" x1="1317" y1="4191.48" x2="1386.67" y2="4032.74">
   <stop offset="0" style="stop-opacity:1; stop-color:#F3880B"/>
   <stop offset="1" style="stop-opacity:1; stop-color:#F18D0C"/>
  </linearGradient>
  <linearGradient id="id59" gradientUnits="userSpaceOnUse" x1="3874.34" y1="3501.74" x2="3953.81" y2="3719.48">
   <stop offset="0" style="stop-opacity:1; stop-color:#D1E328"/>
   <stop offset="1" style="stop-opacity:1; stop-color:#CFE829"/>
  </linearGradient>
  <linearGradient id="id60" gradientUnits="userSpaceOnUse" x1="1002.33" y1="6072.5" x2="892.1" y2="5800.34">
   <stop offset="0" style="stop-opacity:1; stop-color:#FD6B02"/>
   <stop offset="1" style="stop-opacity:1; stop-color:#FB7003"/>
  </linearGradient>
  <linearGradient id="id61" gradientUnits="userSpaceOnUse" x1="3007.18" y1="3719.23" x2="2870.3" y2="3977.09">
   <stop offset="0" style="stop-opacity:1; stop-color:#F18D0C"/>
   <stop offset="1" style="stop-opacity:1; stop-color:#F3880B"/>
  </linearGradient>
  <linearGradient id="id62" gradientUnits="userSpaceOnUse" x1="3271.1" y1="2045.44" x2="3376.26" y2="2180.11">
   <stop offset="0" style="stop-opacity:1; stop-color:#DBC61F"/>
   <stop offset="1" style="stop-opacity:1; stop-color:#DACB20"/>
  </linearGradient>
  <linearGradient id="id63" gradientUnits="userSpaceOnUse" x1="2526.67" y1="1987.24" x2="2757.82" y2="1877.5">
   <stop offset="0" style="stop-opacity:1; stop-color:#E1B81A"/>
   <stop offset="1" style="stop-opacity:1; stop-color:#DFBD1C"/>
  </linearGradient>
  <linearGradient id="id64" gradientUnits="userSpaceOnUse" x1="7248.88" y1="2852.46" x2="7304.05" y2="2986.77">
   <stop offset="0" style="stop-opacity:1; stop-color:#66B326"/>
   <stop offset="1" style="stop-opacity:1; stop-color:#6DB726"/>
  </linearGradient>
  <linearGradient id="id65" gradientUnits="userSpaceOnUse" x1="2500.94" y1="4676.56" x2="2390.07" y2="4887.1">
   <stop offset="0" style="stop-opacity:1; stop-color:#F67E08"/>
   <stop offset="1" style="stop-opacity:1; stop-color:#F87906"/>
  </linearGradient>
  <linearGradient id="id66" gradientUnits="userSpaceOnUse" x1="4582.36" y1="5190.49" x2="4749.77" y2="5372.88">
   <stop offset="0" style="stop-opacity:1; stop-color:#ADDB29"/>
   <stop offset="1" style="stop-opacity:1; stop-color:#A6D729"/>
  </linearGradient>
  <linearGradient id="id67" gradientUnits="userSpaceOnUse" x1="4778.88" y1="5392.8" x2="4989.51" y2="5442.74">
   <stop offset="0" style="stop-opacity:1; stop-color:#A6D729"/>
   <stop offset="1" style="stop-opacity:1; stop-color:#A0D429"/>
  </linearGradient>
  <linearGradient id="id68" gradientUnits="userSpaceOnUse" x1="4046.03" y1="2331.08" x2="3840.24" y2="2434.34">
   <stop offset="0" style="stop-opacity:1; stop-color:#E6AA16"/>
   <stop offset="1" style="stop-opacity:1; stop-color:#E8A514"/>
  </linearGradient>
  <linearGradient id="id69" gradientUnits="userSpaceOnUse" x1="4925.38" y1="2920.26" x2="4852.72" y2="2786.96">
   <stop offset="0" style="stop-opacity:1; stop-color:#DDC21D"/>
   <stop offset="1" style="stop-opacity:1; stop-color:#DFBD1C"/>
  </linearGradient>
  <linearGradient id="id70" gradientUnits="userSpaceOnUse" x1="2355.67" y1="4951.78" x2="2269.6" y2="5111.14">
   <stop offset="0" style="stop-opacity:1; stop-color:#F87906"/>
   <stop offset="1" style="stop-opacity:1; stop-color:#FA7405"/>
  </linearGradient>
  <linearGradient id="id71" gradientUnits="userSpaceOnUse" x1="6219.53" y1="3535.12" x2="6322.72" y2="3315.52">
   <stop offset="0" style="stop-opacity:1; stop-color:#6DB726"/>
   <stop offset="1" style="stop-opacity:1; stop-color:#66B326"/>
  </linearGradient>
  <linearGradient id="id72" gradientUnits="userSpaceOnUse" x1="7109.44" y1="2706.03" x2="7219.95" y2="2808.83">
   <stop offset="0" style="stop-opacity:1; stop-color:#60AF26"/>
   <stop offset="1" style="stop-opacity:1; stop-color:#66B326"/>
  </linearGradient>
  <linearGradient id="id73" gradientUnits="userSpaceOnUse" x1="1582.37" y1="3574.47" x2="1677.73" y2="3363.91">
   <stop offset="0" style="stop-opacity:1; stop-color:#ED960F"/>
   <stop offset="1" style="stop-opacity:1; stop-color:#EB9B11"/>
  </linearGradient>
  <linearGradient id="id74" gradientUnits="userSpaceOnUse" x1="4838.3" y1="2745.49" x2="4701.09" y2="2568.21">
   <stop offset="0" style="stop-opacity:1; stop-color:#DFBD1C"/>
   <stop offset="1" style="stop-opacity:1; stop-color:#E1B81A"/>
  </linearGradient>
  <linearGradient id="id75" gradientUnits="userSpaceOnUse" x1="1466.21" y1="6153.98" x2="1025.67" y2="6076.28">
   <stop offset="0" style="stop-opacity:1; stop-color:#FF6600"/>
   <stop offset="1" style="stop-opacity:1; stop-color:#FD6B02"/>
  </linearGradient>
  <linearGradient id="id76" gradientUnits="userSpaceOnUse" x1="3809.56" y1="2451.76" x2="3658.26" y2="2588.77">
   <stop offset="0" style="stop-opacity:1; stop-color:#E8A514"/>
   <stop offset="1" style="stop-opacity:1; stop-color:#EAA012"/>
  </linearGradient>
  <linearGradient id="id77" gradientUnits="userSpaceOnUse" x1="7314.9" y1="3036.75" x2="7319.18" y2="3200.54">
   <stop offset="0" style="stop-opacity:1; stop-color:#6DB726"/>
   <stop offset="1" style="stop-opacity:1; stop-color:#73BA27"/>
  </linearGradient>
  <linearGradient id="id78" gradientUnits="userSpaceOnUse" x1="5752.44" y1="4547.48" x2="5870.93" y2="4290.65">
   <stop offset="0" style="stop-opacity:1; stop-color:#86C528"/>
   <stop offset="1" style="stop-opacity:1; stop-color:#80C127"/>
  </linearGradient>
  <linearGradient id="id79" gradientUnits="userSpaceOnUse" x1="3632.2" y1="2619.92" x2="3508.48" y2="2789.77">
   <stop offset="0" style="stop-opacity:1; stop-color:#EAA012"/>
   <stop offset="1" style="stop-opacity:1; stop-color:#EB9B11"/>
  </linearGradient>
  <linearGradient id="id80" gradientUnits="userSpaceOnUse" x1="3484.51" y1="2416.95" x2="3554.23" y2="2590.18">
   <stop offset="0" style="stop-opacity:1; stop-color:#D8D022"/>
   <stop offset="1" style="stop-opacity:1; stop-color:#D6D523"/>
  </linearGradient>
  <linearGradient id="id81" gradientUnits="userSpaceOnUse" x1="5325.13" y1="5248.08" x2="5475.41" y2="5041.81">
   <stop offset="0" style="stop-opacity:1; stop-color:#9AD028"/>
   <stop offset="1" style="stop-opacity:1; stop-color:#93CC28"/>
  </linearGradient>
  <linearGradient id="id82" gradientUnits="userSpaceOnUse" x1="3150.28" y1="3450.69" x2="3037.57" y2="3662.11">
   <stop offset="0" style="stop-opacity:1; stop-color:#EF910E"/>
   <stop offset="1" style="stop-opacity:1; stop-color:#F18D0C"/>
  </linearGradient>
  <linearGradient id="id83" gradientUnits="userSpaceOnUse" x1="2674.69" y1="4346.89" x2="2548.75" y2="4585.72">
   <stop offset="0" style="stop-opacity:1; stop-color:#F48309"/>
   <stop offset="1" style="stop-opacity:1; stop-color:#F67E08"/>
  </linearGradient>
  <linearGradient id="id84" gradientUnits="userSpaceOnUse" x1="6808.77" y1="4761.14" x2="6735.81" y2="4942.98">
   <stop offset="0" style="stop-opacity:1; stop-color:#A0D429"/>
   <stop offset="1" style="stop-opacity:1; stop-color:#A6D729"/>
  </linearGradient>
  <linearGradient id="id85" gradientUnits="userSpaceOnUse" x1="7172.4" y1="3812.2" x2="7094.13" y2="4040.24">
   <stop offset="0" style="stop-opacity:1; stop-color:#86C528"/>
   <stop offset="1" style="stop-opacity:1; stop-color:#8DC928"/>
  </linearGradient>
  <linearGradient id="id86" gradientUnits="userSpaceOnUse" x1="5516.38" y1="4548.66" x2="5438.37" y2="4308.64">
   <stop offset="0" style="stop-opacity:1; stop-color:#D2DF26"/>
   <stop offset="1" style="stop-opacity:1; stop-color:#D4DA25"/>
  </linearGradient>
  <linearGradient id="id87" gradientUnits="userSpaceOnUse" x1="6468.2" y1="3048.27" x2="6566.1" y2="2893.48">
   <stop offset="0" style="stop-opacity:1; stop-color:#60AF26"/>
   <stop offset="1" style="stop-opacity:1; stop-color:#59AC25"/>
  </linearGradient>
  <linearGradient id="id88" gradientUnits="userSpaceOnUse" x1="6993.29" y1="4311.03" x2="6928.7" y2="4476.29">
   <stop offset="0" style="stop-opacity:1; stop-color:#93CC28"/>
   <stop offset="1" style="stop-opacity:1; stop-color:#9AD028"/>
  </linearGradient>
  <linearGradient id="id89" gradientUnits="userSpaceOnUse" x1="6337.49" y1="3314.66" x2="6464.37" y2="3090.37">
   <stop offset="0" style="stop-opacity:1; stop-color:#66B326"/>
   <stop offset="1" style="stop-opacity:1; stop-color:#60AF26"/>
  </linearGradient>
  <linearGradient id="id90" gradientUnits="userSpaceOnUse" x1="5508.88" y1="4986.4" x2="5611.26" y2="4797.64">
   <stop offset="0" style="stop-opacity:1; stop-color:#93CC28"/>
   <stop offset="1" style="stop-opacity:1; stop-color:#8DC928"/>
  </linearGradient>
  <linearGradient id="id91" gradientUnits="userSpaceOnUse" x1="4520.02" y1="2402.92" x2="4323.81" y2="2327.49">
   <stop offset="0" style="stop-opacity:1; stop-color:#E2B319"/>
   <stop offset="1" style="stop-opacity:1; stop-color:#E4AE17"/>
  </linearGradient>
  <linearGradient id="id92" gradientUnits="userSpaceOnUse" x1="2836.78" y1="4040.35" x2="2717.21" y2="4266.38">
   <stop offset="0" style="stop-opacity:1; stop-color:#F3880B"/>
   <stop offset="1" style="stop-opacity:1; stop-color:#F48309"/>
  </linearGradient>
  <linearGradient id="id93" gradientUnits="userSpaceOnUse" x1="5901.17" y1="4211.81" x2="5976.23" y2="4047.77">
   <stop offset="0" style="stop-opacity:1; stop-color:#80C127"/>
   <stop offset="1" style="stop-opacity:1; stop-color:#7ABE27"/>
  </linearGradient>
  <linearGradient id="id94" gradientUnits="userSpaceOnUse" x1="4289.83" y1="2318.25" x2="4092.7" y2="2327.45">
   <stop offset="0" style="stop-opacity:1; stop-color:#E4AE17"/>
   <stop offset="1" style="stop-opacity:1; stop-color:#E6AA16"/>
  </linearGradient>
 </defs>
 <g id="Слой_x0020_1">
  <metadata id="CorelCorpID_0Corel-Layer"/>
  <g id="_2363011146288">
   <path class="fil0" d="M1453.8 5766.82l82.64 700.82c-202.86,94.06 -537.82,21.46 -693.69,-158.06l441.42 -563c40.71,17.98 117.63,38.24 169.63,20.24z"/>
   <path class="fil1" d="M1299.09 5752.64l-422.57 591.68c-88.19,-71.17 -238.27,-304.68 -250.71,-510.57l597.7 -177.98c16.93,46.57 39.95,84.5 75.58,96.87z"/>
   <path class="fil2" d="M628.54 5857.98l603.44 -176.81c-18,-45 -35.87,-129.2 -33.87,-203.2l-473.55 -258.49c-68.32,186.52 -121.42,443.76 -96.02,638.5z"/>
   <path class="fil3" d="M714.92 5244.72l483.04 244.79c1,-72 16.62,-167.87 42.62,-265.87l-406.54 -351.04c-50.8,122.77 -90.84,272.84 -119.12,372.12z"/>
   <path class="fil4" d="M826.33 4891.63l411.52 342.33c10,-38 21,-77 35,-119 24,-72 51.98,-164.54 75.98,-235.54l-404.72 -341.25c-36,106 -80.78,236.46 -117.78,353.46z"/>
   <path class="fil5" d="M1054.18 4233.37l381.22 406.13c-27,78 -72.19,199.01 -99.19,278.01l-398.49 -360.53c34,-98 83.46,-233.61 116.46,-323.61z"/>
   <path class="fil6" d="M1137.09 4009.24l384.75 389.73c-32,88 -64,176 -95,265l-389.15 -386.04c31,-84 69.4,-190.69 99.4,-268.69z"/>
   <path class="fil7" d="M1212.84 3816.97l384 385c-25,65 -54.85,144.35 -79.85,210.35l-386.46 -385.91c27.11,-69.13 54.31,-143.44 82.31,-209.44z"/>
   <path class="fil8" d="M1295.48 3632.24l401.31 319.51c-32,77 -75.43,187.49 -105.43,264.49l-387.4 -377.96c24,-56 67.52,-152.04 91.52,-206.04z"/>
   <path class="fil9" d="M1415.79 3368.47l360.4 394.48c-27,64 -66.19,156.86 -92.19,219.86l-402.17 -320c41,-92 91.96,-206.34 133.96,-294.34z"/>
   <path class="fil10" d="M1516.18 3165.56l366.3 357.84c-36,81 -84.8,190.2 -118.8,269.2l-359.55 -399.52c33,-69 77.05,-158.52 112.05,-227.52z"/>
   <path class="fil11" d="M1647.84 2914.98l350.05 358c-43,90 -84.86,184.67 -124.86,271.67l-364 -364.96c44,-86 91.81,-176.71 138.81,-264.71z"/>
   <path class="fil12" d="M1765.87 2697.4l338.47 368.86c-34,67 -86.83,166.54 -118.83,231.54l-347.1 -365.14c35,-66 89.46,-166.26 127.46,-235.26z"/>
   <path class="fil13" d="M1901.77 2451.39l338.91 356.38c-46,85 -103.15,193.77 -145.15,275.77l-345.73 -356.89c44,-80 103.97,-188.26 151.97,-275.26z"/>
   <path class="fil14" d="M2035.32 2214.89l331.61 365.44c-45,79 -103.35,184.27 -144.35,260.27l-331.89 -369.14c42,-75 99.63,-176.57 144.63,-256.57z"/>
   <path class="fil15" d="M2201.48 1966.82l309.35 386.17c-36,46 -71,99 -105,159 -15,27 -33.53,58.3 -48.53,85.3l-330.47 -367.3c12,-21 23,-42 35,-63 40,-71 90.28,-145.41 139.65,-200.17z"/>
   <path class="fil16" d="M2404.65 1764.15l271.02 425.26c-57.35,34.83 -123.83,110.24 -173.83,175.24l-315.85 -380.05c61.92,-87.95 147.49,-167.04 218.66,-220.45z"/>
   <path class="fil17" d="M2724.61 1626.83l99.1 489.87c-55.03,12.7 -112.88,46.29 -159.88,81.29l-274.33 -421.5c84.34,-71.7 224.57,-136.67 335.11,-149.66z"/>
   <path class="fil18" d="M3096.03 1672.89l-74.04 473.31c-63.94,-32.89 -153.07,-43.8 -225.31,-21.73l-84.86 -495.47c128,-23 264.21,-5.11 384.21,43.89z"/>
   <path class="fil19" d="M3313.96 1808.99l-125.42 487.91c-51,-68 -122.11,-128.59 -183.11,-158.49l73.81 -472.13c76,30 175.37,87.13 234.72,142.71z"/>
   <path class="fil20" d="M3517.66 2048.73l-248.08 388.42c-26,-53 -59.76,-112.16 -89.76,-152.16l124 -484.99c46.26,38.86 156.3,166.56 213.84,248.73z"/>
   <path class="fil21" d="M3628.82 2271.99l-289 345c-12,-33 -24,-66 -37,-99 -12,-33 -25,-64 -39,-93l240 -398c41,63 78,132 109,208 6,12 11,25 16,37z"/>
   <path class="fil22" d="M3716.81 2489.99l-294.22 352.32c-27,-74 -55.58,-154.3 -84.58,-230.3l289.33 -343.61c30,74 60.47,149.59 89.47,221.59z"/>
   <path class="fil23" d="M3821.81 2759.99l-297 371c-33,-94 -68.06,-193.06 -103.06,-291.06l294.36 -351.68c36,91 71.7,182.74 105.7,271.74z"/>
   <path class="fil24" d="M3925.15 3033.81l-296.28 396.73c-34,-97 -71.14,-204.47 -106.14,-305.47l297.53 -369.13c34,89 71.89,189.87 104.89,277.87z"/>
   <path class="fil25" d="M4024.72 3301.6l-300.76 400.27c-31,-86 -71.33,-202.42 -101.33,-289.42l296.19 -395.48c32,85 74.9,200.63 105.9,284.63z"/>
   <path class="fil26" d="M4102.64 3510.62l-286.26 448.97c-31,-84 -68.57,-188.62 -97.57,-272.62l297 -409c8.08,21.36 75.06,199.59 86.83,232.65z"/>
   <path class="fil27" d="M4185.81 3731.97l-297 422c-27,-72 -54,-144 -80,-215l290 -438.99c28,78 57,155 87,232l0 -0.01z"/>
   <path class="fil28" d="M4293.09 4013.02l-296.18 413.99c-35,-85 -86.63,-218.11 -118.63,-301.11l300.62 -411.7c32,87 80.19,211.82 114.19,298.82z"/>
   <path class="fil29" d="M4386.37 4245.72l-277.42 447.59c-38,-89 -85.14,-199.35 -120.14,-286.35l296 -415c8.41,21.46 101.56,251.52 101.56,253.76z"/>
   <path class="fil30" d="M4485.11 4482.52l-265.24 455.34c-39,-84 -86.06,-186.9 -121.06,-267.9l275 -454.99c33,81 76.3,184.55 111.3,267.55z"/>
   <path class="fil31" d="M4600.22 4745.15l-254.77 450.69c-46.48,-92.97 -92.42,-185.25 -135.65,-279.89l266 -454.99c38,88 83.42,192.19 124.42,284.19z"/>
   <path class="fil32" d="M4715.59 4950.33l-222.79 480.24c-50,-68 -112,-164.62 -156,-251.62l257 -447.99c6,13 12,27 18,40 29,64 71.79,135.37 103.79,179.37z"/>
   <path class="fil33" d="M4865.84 5075.18l-156.16 570.41c-75,-56 -162.88,-141.64 -230.88,-233.64l224 -478.99c47,66 111.04,118.22 163.04,142.22z"/>
   <path class="fil34" d="M5035.07 5073.96l22.51 682.76c-111,0 -254.78,-40.77 -363.78,-122.77l158 -564.99c52,25 129.27,21 183.27,5z"/>
   <path class="fil35" d="M5183.01 4969.42l240.01 572.39c-114,134 -260.22,215.14 -395.22,216.14l-16.43 -678.07c51.99,-11.04 121.96,-59.97 171.64,-110.46z"/>
   <path class="fil36" d="M5330.38 4774.94l283.41 452.01c-60.15,112.78 -122.39,236.2 -205.99,333l-241 -574.99c51,-47 113.58,-131.02 163.58,-210.02z"/>
   <path class="fil37" d="M5444.79 4559.96l302.99 413c-44,85 -88,170 -134,254l-295.99 -431.99c18.37,-28.73 88.63,-144.4 127,-235.01z"/>
   <path class="fil38" d="M5565.77 4312.01c109,122.82 210.26,261.45 319.26,384.27 -43,89 -92.25,187.69 -137.25,276.69 -101,-137.67 -202,-275.33 -302.99,-413 41,-84 81.98,-168.96 120.98,-247.96z"/>
   <path class="fil39" d="M5699.78 4048.7l319.2 365.71c-40,85 -96.2,204.56 -138.2,290.56l-317 -389c41,-82 95,-187.27 136,-267.27z"/>
   <path class="fil40" d="M5810.4 3835.5l312.66 351.06c-36,79 -81.28,179.41 -119.28,260.41l-317 -373c38,-74 85.62,-165.47 123.62,-238.47z"/>
   <path class="fil41" d="M5928.32 3612.03l309.92 320.22c-38,84 -84.46,186.73 -124.46,274.73l-313 -353c39,-75 87.54,-166.95 127.54,-241.95z"/>
   <path class="fil42" d="M6053.1 3376.91l311.33 273.33c-39,86 -92.65,206.74 -133.65,298.74l-312 -319c42,-79 91.32,-173.07 134.32,-253.07z"/>
   <path class="fil43" d="M6175.64 3144.99l300.55 256.68c-35,78 -86.41,191.31 -125.41,279.31l-305 -290c40,-77 87.86,-166.99 129.86,-245.99z"/>
   <path class="fil44" d="M6321.9 2870.62l271.2 285.89c-47.32,94.63 -86.31,178.09 -130.33,274.47l-294 -273c49.98,-94.41 105.67,-192.44 153.13,-287.36z"/>
   <path class="fil45" d="M6442.8 2702.09l267.1 282.45c-42,46 -91.13,120.45 -130.13,197.45l-283.33 -261.55c32.46,-71.37 98.36,-161.35 146.36,-218.35z"/>
   <path class="fil46" d="M6662.21 2520.8l197.68 374.81c-45.33,10.03 -111.26,43.83 -159.59,99.79l-267.53 -281.41c68,-82 148.17,-152.52 229.44,-193.19z"/>
   <path class="fil47" d="M6933.95 2452.22l-2.53 442.42c-26.79,-7.47 -64.89,-3.24 -87.65,5.34l-196 -371c24.46,-14.29 167.64,-89.46 286.18,-76.76z"/>
   <path class="fil48" d="M6923.77 2451.99l-7 440c23,3 55.1,19.01 74.1,32.01l185.99 -399.9c-77.49,-47.56 -170.09,-71.11 -253.09,-72.11z"/>
   <path class="fil49" d="M7370.39 2709.47l-313.69 313.2c-16.6,-50.83 -47.94,-87.68 -76.94,-106.68l179 -402c77,41 156.63,118.48 211.63,195.48z"/>
   <path class="fil50" d="M7482.32 2980.57l-405.26 135.99c-5,-38 -15.3,-83.58 -27.3,-111.58l310 -311c53,75 103.67,176.26 122.56,286.59z"/>
   <path class="fil51" d="M7502.81 3233.83l-429.05 12.15c6,-52 7,-100 2,-142l402 -144c13.58,61.75 36.47,164.26 25.05,273.85z"/>
   <path class="fil52" d="M7467.76 3423.98l-428 -23c17,-55 29.74,-123.44 35.74,-171.44l430.27 -29.1c-4,64 -21.01,154.54 -38.01,223.54z"/>
   <path class="fil53" d="M6971.77 3597.98c22.52,-65.56 47.32,-141.81 71,-206.92l427.18 23.87c-17.11,71.29 -42.76,143.11 -65.18,213.05l-433 -30z"/>
   <path class="fil54" d="M7338.76 3828.97c-147,-7 -293.99,-14 -440.99,-21 25.61,-72.75 51.22,-145.49 76.83,-218.24 145.38,6.54 292.43,8.13 437.81,14.67 -27.96,85.09 -49.66,151.37 -73.65,224.57z"/>
   <path class="fil55" d="M7346.17 3806.4c-147.36,-5.46 -294.71,-10.93 -442.07,-16.39 -33.97,97.15 -67.95,194.31 -101.92,291.46 150.52,3.34 301.03,6.69 451.55,10.03 30.81,-95.03 61.63,-190.07 92.44,-285.1z"/>
   <path class="fil56" d="M6742.77 4245.97c144.33,25.67 288.66,51.33 432.99,77 33.13,-97.2 56,-172 87,-258 -149,-7 -297.99,-14 -446.99,-21 -29,75 -49,141 -73,202z"/>
   <path class="fil57" d="M6747.09 4234.83c143.75,26.99 287.49,53.98 431.24,80.97 -39.01,109.4 -56.57,159.17 -84.57,234.17 -137.67,-49.33 -275.33,-98.67 -413,-148 5.5,-13.9 65.97,-167.14 66.33,-167.14z"/>
   <path class="fil58" d="M6686.23 4388.18c137.34,49.9 274.69,99.81 412.03,149.71 -32,91 -69.49,195.08 -102.49,286.08 -142.33,-51.33 -282.03,-94.74 -424.36,-146.07 36,-86 74.82,-192.72 114.82,-289.72z"/>
   <path class="fil59" d="M6586.37 4641.43c141.43,53.09 271.2,120.54 412.63,173.63 -29,82 -61.23,172.9 -91.23,254.9 -134.46,-78.28 -270.23,-145.65 -404.69,-223.93 22,-53 57.94,-140.44 83.29,-204.6z"/>
   <path class="fil60" d="M6520.62 4801.66l392.87 252.64c-35.53,97.38 -71.47,191.78 -117.68,300.86l-370.26 -348.6c33.78,-67.1 71.21,-137.76 95.07,-204.9z"/>
   <path class="fil61" d="M6432.32 4993.14l380.25 322.02c-45.66,100.6 -108.8,212.8 -165.8,287.8l-311 -450.99c13.54,-18.19 79.62,-116.5 96.55,-158.83z"/>
   <path class="fil62" d="M6342.59 5142.62l315.92 444.64c-75.61,110.84 -176.74,202.69 -268.74,257.69l-127 -613.99c25,-20 56.82,-56.34 79.82,-88.34z"/>
   <path class="fil63" d="M6277.97 5217.63l140.31 609.25c-93.61,70.19 -229.51,102.07 -332.51,84.07l82.8 -641.77c36.96,2.3 79.73,-24.23 109.4,-51.55z"/>
   <path class="fil64" d="M6182.21 5268.8l-66.34 646.19c-104.47,-9.45 -239.09,-88.04 -338.09,-212.04l295.48 -471.31c31.51,29.82 78.28,38.81 108.95,37.16z"/>
   <path class="fil65" d="M6091.83 5249.37l-296.82 474.51c-57,-71 -130.23,-183.93 -182.23,-296.93l344 -377c15.81,35.67 67.32,140.15 135.05,199.42z"/>
   <path class="fil66" d="M5965.44 5068.99l-340.16 384.56c-27,-61 -66.5,-154.59 -92.5,-228.59 -6,-19 -12,-38 -18,-57l353 -348 56 149c11,29 30.66,75.03 41.66,100.03z"/>
   <path class="fil67" d="M5452.22 4969.25c21.31,66.1 45.05,141.52 65.47,207.89 117.28,-115.63 232.29,-237.51 352.93,-349.59 -29.47,-80.44 -62.58,-171.39 -92.34,-251.72 -47.35,56.53 -297.26,359.37 -326.06,393.42z"/>
   <path class="fil68" d="M5452.21 4969.26c109.32,-129.25 218.63,-258.51 327.95,-387.76 -31.42,-84.61 -63.16,-171.15 -87.38,-236.54 -103.22,139.84 -205.35,280.7 -307.99,421 22.43,65.72 44.86,133.34 67.42,203.3z"/>
   <path class="fil69" d="M5692.78 4344.97c-102.67,140.33 -205.32,280.67 -307.99,421 -34,-100 -67,-195 -101,-289 103.67,-131.67 207.33,-263.33 310.99,-395 32.67,87.67 65.33,175.33 98,263z"/>
   <path class="fil70" d="M5600.44 4097.18c-102.82,134.16 -205.64,268.31 -308.47,402.47 -37,-103 -83.18,-227.68 -122.18,-328.68 107.67,-121.67 215.33,-243.33 323,-365 35.88,97.07 71.76,194.14 107.65,291.21z"/>
   <path class="fil71" d="M5500.31 3826.32c-107.7,121.31 -215.39,242.63 -323.09,363.94 -38,-99 -83.43,-218.29 -123.43,-321.29l325 -370c40.51,109.12 81.01,218.23 121.52,327.35z"/>
   <path class="fil72" d="M5385.68 3517.55l-326.5 365.32c-31,-79 -67.39,-173.89 -100.39,-257.89 106.89,-126.67 213.77,-253.35 320.66,-380.02 35.41,90.86 70.82,181.73 106.23,272.59z"/>
   <path class="fil73" d="M5289.75 3275.33l-324.2 366.89c-29,-76 -65.75,-170.24 -96.75,-252.24l327.69 -383.43c34.4,91.9 64.62,181.01 93.26,268.78z"/>
   <path class="fil74" d="M5206.13 3033.18l-329.56 377.32c-36.68,-92.77 -68.85,-185.93 -108.77,-277.52l340 -366c28.11,83.17 69.17,179.91 98.33,266.2z"/>
   <path class="fil75" d="M5117.79 2793.83l-344.06 352.8c-30,-71 -67.93,-148.64 -99.93,-204.64l329 -393c39,66 84.99,164.84 114.99,244.84z"/>
   <path class="fil76" d="M5015.32 2570.57l-334.74 383.41c-44,-79 -96.78,-155.99 -142.78,-207.99l285 -428c66,65 139.52,162.58 192.52,252.58z"/>
   <path class="fil77" d="M4832.07 2327.23l-281.11 434c-30,-35 -74.16,-79.24 -105.16,-103.24l162 -496.99c36.53,19.22 184.41,116.57 224.27,166.23z"/>
   <path class="fil78" d="M4620.56 2167.85l-163.31 499.23c-49,-38 -126.7,-75.6 -174.7,-89.6l48.83 -506.99c89,15 206.18,53.36 289.18,97.36z"/>
   <path class="fil79" d="M4347.81 2072.99l-48 508.99c-59,-17 -117.07,-18.31 -177.05,-5.31l-110.95 -491.68c112,-26 225,-30 336,-12z"/>
   <path class="fil80" d="M4036.04 2079.71l115.66 491.78c-53.66,5.1 -142.89,47.49 -198.89,86.49l-259 -434.99c100,-67 226.33,-118.99 342.23,-143.28z"/>
   <path class="fil81" d="M3716.08 2208.59l257.19 435.73c-44,31 -107.46,81.66 -148.46,124.66l-358 -345c18.71,-21.69 156.47,-165.47 249.27,-215.39z"/>
   <path class="fil82" d="M3466.82 2423.99l358 345c-46,49 -91,105 -132,165l-413 -235c18,-30 36,-61 54,-91 40,-67 85,-129 133,-184z"/>
   <path class="fil83" d="M3291.3 2679.74l401.52 254.25c-60.28,87.55 -105.33,173.68 -154.14,266.86l-417.86 -230.86c53,-91 117.48,-200.25 170.48,-290.25z"/>
   <path class="fil84" d="M3132.47 2950l421.26 221.86c-56,108 -122.91,235.12 -178.91,342.12 -145.33,-75.67 -290.66,-151.33 -435.99,-227 20.69,-36.55 193.64,-336.98 193.64,-336.98z"/>
   <path class="fil85" d="M2946.85 3272.83c146.17,73.67 292.34,147.35 438.51,221.02 -48,93 -106.55,205.13 -155.55,297.13 -148.33,-77.33 -296.66,-154.67 -444.99,-232 51,-90 110.03,-195.15 162.03,-286.15z"/>
   <path class="fil86" d="M2796.4 3538.53c148.7,76.2 297.4,152.39 446.1,228.59 -55,106 -122.69,234.86 -177.69,339.86 -150.66,-79.33 -301.33,-158.67 -451.99,-238 55,-101 124.58,-225.45 183.58,-330.45z"/>
   <path class="fil87" d="M2623.46 3849.46l453.44 234.45c-50,96 -128.06,243.49 -178.06,339.49l-456.98 -242.15c50,-92 127.6,-232.79 181.6,-331.79z"/>
   <path class="fil88" d="M2455.83 4154.97l457.99 240c-58,110 -122.53,232.88 -180.53,341.88l-450.95 -247.27c54,-102 111.49,-218.61 173.49,-334.61z"/>
   <path class="fil89" d="M2290.31 4474.67l458.72 231.98c-51,98 -111.21,212.32 -163.21,309.32l-458.37 -229.51c45,-86 105.86,-204.79 162.86,-311.79z"/>
   <path class="fil90" d="M2141.04 4759.97l456.95 233.27c-44,85 -101.81,197.53 -146.81,281.53l-440.27 -262.47c31,-63 83.13,-160.33 130.13,-252.33z"/>
   <path class="fil91" d="M1900.84 5215.5l373.82 390.23c59,-110 128.98,-242.89 184.98,-347.89l-440.26 -262.47c-7.74,14.37 -118.18,220.13 -118.54,220.13z"/>
   <path class="fil92" d="M1913.94 5191.43l366.9 402.53c-42,80 -85,160 -130,240l-399.53 -365.93c50,-78 104.63,-171.6 162.63,-276.6z"/>
   <path class="fil93" d="M1765.38 5444.1l398.71 366.2c-63,111 -161.61,262.28 -242.41,365.02l-300.24 -536.48c16.38,-18.14 143.94,-183.2 143.94,-194.74z"/>
   <path class="fil94" d="M1638.38 5621.9l326.5 497.37c-102.14,141.87 -289.43,323.9 -471.66,365.27l-59.72 -712.72c61.31,-15.04 141.88,-79.92 204.88,-149.92z"/>
  </g>
  <g id="_2363011148112">
   <path class="fil95" d="M3336.82 2603.99c68,-117 194,-264 290,-331 68,164 150,364 198,495.99 -91,100 -209,266 -281,421 -55,-159 -143,-413 -207,-585.99z"/>
   <path class="fil95" d="M5631.78 4181.97l218 586.99c-87,190 -184,371 -284,546.99 -51,-133 -131.99,-402 -198.99,-602.99 96,-183 166.99,-336 264.99,-530.99z"/>
  </g>
 </g>
</svg>
