<?xml version="1.0" encoding="UTF-8"?>
<!DOCTYPE svg PUBLIC "-//W3C//DTD SVG 1.1//EN" "http://www.w3.org/Graphics/SVG/1.1/DTD/svg11.dtd">
<!-- Creator: CorelDRAW X8 -->
<svg xmlns="http://www.w3.org/2000/svg" xml:space="preserve" width="127mm" height="90.5932mm" version="1.1" style="shape-rendering:geometricPrecision; text-rendering:geometricPrecision; image-rendering:optimizeQuality; fill-rule:evenodd; clip-rule:evenodd"
viewBox="0 0 12700 9059"
 xmlns:xlink="http://www.w3.org/1999/xlink">
 <defs>
  <style type="text/css">
   <![CDATA[
    .fil3 {fill:#88BD0B}
    .fil2 {fill:#C7A612}
    .fil1 {fill:url(#id0)}
    .fil0 {fill:url(#id1)}
   ]]>
  </style>
  <linearGradient id="id0" gradientUnits="userSpaceOnUse" x1="2572.85" y1="3981.19" x2="12155.6" y2="4552.8">
   <stop offset="0" style="stop-opacity:1; stop-color:#F08E0D"/>
   <stop offset="0.160784" style="stop-opacity:1; stop-color:#EF910E"/>
   <stop offset="0.678431" style="stop-opacity:1; stop-color:#CDED2B"/>
   <stop offset="0.941176" style="stop-opacity:1; stop-color:#65B226"/>
   <stop offset="1" style="stop-opacity:1; stop-color:#53A825"/>
  </linearGradient>
  <linearGradient id="id1" gradientUnits="userSpaceOnUse" x1="708.28" y1="5594.71" x2="12102.4" y2="3443.67">
   <stop offset="0" style="stop-opacity:1; stop-color:#FF6600"/>
   <stop offset="0.560784" style="stop-opacity:1; stop-color:#CDED2B"/>
   <stop offset="1" style="stop-opacity:1; stop-color:#53A825"/>
  </linearGradient>
 </defs>
 <g id="Слой_x0020_1">
  <g id="_2496105494912">
   <path class="fil0" d="M11350 4558l423 -1212c348,-998 -357,-1432 -844,-419 -457,953 -1120,2604 -1927,4029 -594,1047 -1576,764 -2176,-445 -877,-1772 -1211,-3077 -1878,-4845 -354,-939 -1061,-1030 -1644,-12 -1015,1773 -1529,3124 -2076,4770 -429,1289 242,1574 794,757 190,-282 286,-453 554,-957l812 483c-317,597 -646,1273 -1060,1830 -774,1044 -2820,486 -2126,-1853 798,-2688 1351,-3670 2472,-5661 857,-1521 2302,-1182 2842,124 681,1645 1094,3025 1830,4647 402,886 975,767 1507,-346 521,-1089 996,-1936 1545,-2991 933,-1793 2674,-663 2142,1003l-364 1122 -826 -24z"/>
   <path class="fil1" d="M2545 6282c369,-742 1422,-2708 2428,-4393 826,-1384 2631,-1384 3262,321l1483 4004c365,985 755,475 1014,-148 214,-515 357,-825 631,-1547l820 40c-272,750 -537,1499 -809,2248 -527,1187 -1672,1879 -2372,-123 -429,-1409 -790,-2232 -1310,-3609 -764,-2019 -1755,-1233 -2274,-235 -683,1311 -1367,2619 -2060,3924l-813 -482z"/>
   <path class="fil2" d="M5009 1829c125,-213 369,-469 545,-591 125,299 269,664 358,907 -167,182 -389,477 -522,748 -102,-292 -264,-747 -381,-1064z"/>
   <path class="fil3" d="M9185 4773l398 1077c-158,349 -339,675 -521,998 -94,-245 -243,-736 -364,-1104 175,-335 308,-614 487,-971z"/>
  </g>
 </g>
</svg>
